<?xml version="1.0" encoding="UTF-8" standalone="no"?>
<!-- Created with Inkscape (http://www.inkscape.org/) -->

<svg
   xmlns:dc="http://purl.org/dc/elements/1.1/"
   xmlns:cc="http://creativecommons.org/ns#"
   xmlns:rdf="http://www.w3.org/1999/02/22-rdf-syntax-ns#"
   xmlns:svg="http://www.w3.org/2000/svg"
   xmlns="http://www.w3.org/2000/svg"
   xmlns:sodipodi="http://sodipodi.sourceforge.net/DTD/sodipodi-0.dtd"
   xmlns:inkscape="http://www.inkscape.org/namespaces/inkscape"
   width="349.99976"
   height="349.99951"
   viewBox="0 0 92.604165 92.60404"
   version="1.1"
   id="svg8"
   inkscape:version="0.92.4 (5da689c313, 2019-01-14)"
   sodipodi:docname="whitelogo.svg"
   inkscape:export-filename="/home/varun/Documents/Projects/knighthacks/branding/whitelogo.png"
   inkscape:export-xdpi="96"
   inkscape:export-ydpi="96">
  <defs
     id="defs2">
    <inkscape:path-effect
       effect="skeletal"
       id="path-effect1755"
       is_visible="true"
       pattern="m 71.860676,89.676813 a 8.7002184,2.0017664 0 0 0 -5.219786,0.402873 8.7002184,2.0017664 0 0 0 5.219786,0.403509 8.7002184,2.0017664 0 0 0 5.221159,-0.402873 8.7002184,2.0017664 0 0 0 -5.221159,-0.403509 z"
       copytype="single_stretched"
       prop_scale="0.53117404"
       scale_y_rel="false"
       spacing="0"
       normal_offset="0"
       tang_offset="0"
       prop_units="false"
       vertical_pattern="false"
       fuse_tolerance="0" />
  </defs>
  <sodipodi:namedview
     id="base"
     pagecolor="#000000"
     bordercolor="#666666"
     borderopacity="1.0"
     inkscape:pageopacity="0"
     inkscape:pageshadow="2"
     inkscape:zoom="2.114039"
     inkscape:cx="176.97129"
     inkscape:cy="186.08546"
     inkscape:document-units="px"
     inkscape:current-layer="layer1"
     showgrid="false"
     showborder="false"
     inkscape:window-width="1920"
     inkscape:window-height="1016"
     inkscape:window-x="0"
     inkscape:window-y="27"
     inkscape:window-maximized="1"
     inkscape:snap-global="true"
     inkscape:pagecheckerboard="false"
     units="px"
     fit-margin-top="0"
     fit-margin-left="0"
     fit-margin-right="0"
     fit-margin-bottom="0" />
  <metadata
     id="metadata5">
    <rdf:RDF>
      <cc:Work
         rdf:about="">
        <dc:format>image/svg+xml</dc:format>
        <dc:type
           rdf:resource="http://purl.org/dc/dcmitype/StillImage" />
        <dc:title></dc:title>
      </cc:Work>
    </rdf:RDF>
  </metadata>
  <g
     inkscape:label="Layer 1"
     inkscape:groupmode="layer"
     id="layer1"
     transform="translate(-0.29721698,-0.54543402)">
    <circle
       cy="63.244389"
       cx="23.935637"
       id="circle1141-3"
       style="opacity:1;fill:none;fill-opacity:1;stroke:#ffffff;stroke-width:0.1000125;stroke-linecap:round;stroke-linejoin:miter;stroke-miterlimit:4;stroke-dasharray:none;stroke-dashoffset:0;stroke-opacity:1"
       r="0"
       inkscape:export-xdpi="96"
       inkscape:export-ydpi="96" />
    <circle
       style="opacity:1;fill:none;fill-opacity:1;stroke:#ffffff;stroke-width:0.1000125;stroke-linecap:round;stroke-linejoin:miter;stroke-miterlimit:4;stroke-dasharray:none;stroke-dashoffset:0;stroke-opacity:1"
       id="circle1143-5"
       cx="26.905668"
       cy="64.366936"
       r="0"
       inkscape:export-xdpi="96"
       inkscape:export-ydpi="96" />
    <circle
       cy="65.162064"
       cx="30.811148"
       id="circle1145-6"
       style="opacity:1;fill:none;fill-opacity:1;stroke:#ffffff;stroke-width:0.1000125;stroke-linecap:round;stroke-linejoin:miter;stroke-miterlimit:4;stroke-dasharray:none;stroke-dashoffset:0;stroke-opacity:1"
       r="0"
       inkscape:export-xdpi="96"
       inkscape:export-ydpi="96" />
    <path
       id="path1747"
       style="fill:#fffff5;fill-opacity:1;stroke:#ffffff;stroke-width:0.43504432px;stroke-linecap:butt;stroke-linejoin:miter;stroke-opacity:1"
       inkscape:path-effect="#path-effect1755"
       inkscape:original-d="m 83.707485,81.563087 c 0,0 -0.856218,-0.131447 2.614631,-5.142444 m -3.242887,-0.01694 c 0,0 -0.926108,3.803335 0.628319,5.159325 m 5.546011,14.99036 c 0,0 -14.574917,-11.120829 -6.174396,-20.149735 m 32.047607,1.379472 c 0,0 0.21594,10.317832 -3.59914,11.745056 M 88.942142,96.61126 c 0,0 0.218012,-2.117477 1.563876,-3.007441 1.960381,-1.29632 5.597526,-1.068793 8.4999,3.13918 m -6.373172,-2.071651 c 0,0 6.059991,1.534601 6.228013,2.408315 m -6.384834,-2.307501 c 0.179224,0 3.360439,2.15068 4.256551,3.898109 M 86.080872,76.250019 c 0,0 31.294288,-25.157132 25.692118,12.988614 m -4.07173,9.694852 c 0,0 5.5165,-2.777298 8.14461,-8.068188 1.89697,-3.818965 2.34705,-9.354832 -1.36456,-12.905638 M 95.836155,101.77788 c 0,0 6.368185,-3.865264 12.261135,0.15842 m -1.66333,-4.016657 c 0,0 3.77022,-8.649327 3.86526,-14.732369 m -4.75238,-5.671169 c 0,0 4.15042,15.429383 -1.01383,20.625316 m 0.44355,-12.261133 -0.0317,7.825581 M 99.146977,78.783405 c 0,0 7.508753,12.419546 3.516753,19.167922 M 99.146977,85.943654 c 0,0 2.819743,3.358346 2.122733,12.007673 m -4.940482,-10.88577 c 0,0 3.853302,5.690342 3.808492,10.081315 M 90.728497,88.00648 c 0,0 4.839031,-0.313641 8.557913,7.930634 m 19.22639,22.537346 c 0,0 5.01824,-7.97545 -10.35011,-15.59244 m -22.721283,15.59244 c 0,0 -5.018253,-7.97545 10.350151,-15.59244 m 8.251162,19.52821 c 0,0 -0.25346,-20.68868 6.17814,-17.80558 m -10.12341,17.80558 c 0,0 0.25346,-20.68868 -6.178088,-17.80558 m 11.638988,17.99194 c 0,0 1.83807,-19.44933 8.36456,-15.5207 m -15.218976,15.5207 c 0,0 -1.838097,-19.44933 -8.364696,-15.5207 m 16.483672,14.30466 a 0.68117672,0.68117404 0 0 0 0.68117,0.68117 0.68117672,0.68117404 0 0 0 0.68118,-0.68117 0.68117672,0.68117404 0 0 0 -0.68118,-0.68118 0.68117672,0.68117404 0 0 0 -0.68117,0.68118 z m 5.29101,-1.0772 a 0.68117672,0.68117404 0 0 0 0.68118,0.68118 0.68117672,0.68117404 0 0 0 0.68117,-0.68118 0.68117672,0.68117404 0 0 0 -0.68117,-0.68117 0.68117672,0.68117404 0 0 0 -0.68118,0.68117 z m 4.02369,-1.52078 a 0.68117672,0.68117404 0 0 0 0.68118,0.68117 0.68117672,0.68117404 0 0 0 0.68117,-0.68117 0.68117672,0.68117404 0 0 0 -0.68117,-0.68117 0.68117672,0.68117404 0 0 0 -0.68118,0.68117 z m -18.6698,2.59798 a 0.68117404,0.68117404 0 0 1 -0.681174,0.68117 0.68117404,0.68117404 0 0 1 -0.681174,-0.68117 0.68117404,0.68117404 0 0 1 0.681174,-0.68118 0.68117404,0.68117404 0 0 1 0.681174,0.68118 z m -5.290985,-1.0772 a 0.68117404,0.68117404 0 0 1 -0.681174,0.68118 0.68117404,0.68117404 0 0 1 -0.681174,-0.68118 0.68117404,0.68117404 0 0 1 0.681174,-0.68117 0.68117404,0.68117404 0 0 1 0.681174,0.68117 z m -4.023681,-1.52078 a 0.68117404,0.68117404 0 0 1 -0.681174,0.68117 0.68117404,0.68117404 0 0 1 -0.681174,-0.68117 0.68117404,0.68117404 0 0 1 0.681174,-0.68117 0.68117404,0.68117404 0 0 1 0.681174,0.68117 z m 14.783406,48.466 a 0.43797764,0.43685696 0 0 0 0.43798,0.43685 0.43797764,0.43685696 0 0 0 0.43797,-0.43685 0.43797764,0.43685696 0 0 0 -0.43797,-0.43686 0.43797764,0.43685696 0 0 0 -0.43798,0.43686 z m -2.53154,0 a 0.43797764,0.43685696 0 0 0 0.43798,0.43685 0.43797764,0.43685696 0 0 0 0.43797,-0.43685 0.43797764,0.43685696 0 0 0 -0.43797,-0.43686 0.43797764,0.43685696 0 0 0 -0.43798,0.43686 z m 2.53154,-5.33191 a 0.43797764,0.43685696 0 0 0 0.43798,0.43685 0.43797764,0.43685696 0 0 0 0.43797,-0.43685 0.43797764,0.43685696 0 0 0 -0.43797,-0.43686 0.43797764,0.43685696 0 0 0 -0.43798,0.43686 z m -2.53154,0 a 0.43797764,0.43685696 0 0 0 0.43798,0.43685 0.43797764,0.43685696 0 0 0 0.43797,-0.43685 0.43797764,0.43685696 0 0 0 -0.43797,-0.43686 0.43797764,0.43685696 0 0 0 -0.43798,0.43686 z m 2.53154,-5.71274 a 0.43797764,0.43685696 0 0 0 0.43798,0.43686 0.43797764,0.43685696 0 0 0 0.43797,-0.43686 0.43797764,0.43685696 0 0 0 -0.43797,-0.43686 0.43797764,0.43685696 0 0 0 -0.43798,0.43686 z m -2.53154,0 a 0.43797764,0.43685696 0 0 0 0.43798,0.43686 0.43797764,0.43685696 0 0 0 0.43797,-0.43686 0.43797764,0.43685696 0 0 0 -0.43797,-0.43686 0.43797764,0.43685696 0 0 0 -0.43798,0.43686 z m 23.07439,-4.65312 a 0.43797764,0.43685696 0 0 0 0.43797,0.43685 0.43797764,0.43685696 0 0 0 0.43798,-0.43685 0.43797764,0.43685696 0 0 0 -0.43798,-0.43686 0.43797764,0.43685696 0 0 0 -0.43797,0.43686 z m -1.58545,2.33027 a 0.43797764,0.43685696 0 0 0 0.43798,0.43686 0.43797764,0.43685696 0 0 0 0.43798,-0.43686 0.43797764,0.43685696 0 0 0 -0.43798,-0.43685 0.43797764,0.43685696 0 0 0 -0.43798,0.43685 z m -3.32415,-2.36352 a 0.43797764,0.43685696 0 0 0 0.43798,0.43685 0.43797764,0.43685696 0 0 0 0.43798,-0.43685 0.43797764,0.43685696 0 0 0 -0.43798,-0.43686 0.43797764,0.43685696 0 0 0 -0.43798,0.43686 z m 1.54055,-2.48708 a 0.43797764,0.43685696 0 0 0 0.43798,0.43686 0.43797764,0.43685696 0 0 0 0.43798,-0.43686 0.43797764,0.43685696 0 0 0 -0.43798,-0.43686 0.43797764,0.43685696 0 0 0 -0.43798,0.43686 z m -4.60575,-0.44356 a 0.43797764,0.43685696 0 0 0 0.43797,0.43686 0.43797764,0.43685696 0 0 0 0.43798,-0.43686 0.43797764,0.43685696 0 0 0 -0.43798,-0.43685 0.43797764,0.43685696 0 0 0 -0.43797,0.43685 z m 1.52467,-2.07521 a 0.43797764,0.43685696 0 0 0 0.43798,0.43686 0.43797764,0.43685696 0 0 0 0.43797,-0.43686 0.43797764,0.43685696 0 0 0 -0.43797,-0.43685 0.43797764,0.43685696 0 0 0 -0.43798,0.43685 z m -36.318869,5.0391 a 0.43685696,0.43685696 0 0 1 -0.436857,0.43685 0.43685696,0.43685696 0 0 1 -0.436857,-0.43685 0.43685696,0.43685696 0 0 1 0.436857,-0.43686 0.43685696,0.43685696 0 0 1 0.436857,0.43686 z m 1.581414,2.33027 a 0.43685696,0.43685696 0 0 1 -0.436857,0.43686 0.43685696,0.43685696 0 0 1 -0.436857,-0.43686 0.43685696,0.43685696 0 0 1 0.436857,-0.43685 0.43685696,0.43685696 0 0 1 0.436857,0.43685 z m 3.315635,-2.36352 a 0.43685696,0.43685696 0 0 1 -0.436857,0.43685 0.43685696,0.43685696 0 0 1 -0.436857,-0.43685 0.43685696,0.43685696 0 0 1 0.436857,-0.43686 0.43685696,0.43685696 0 0 1 0.436857,0.43686 z m -1.536613,-2.48708 a 0.43685696,0.43685696 0 0 1 -0.436857,0.43686 0.43685696,0.43685696 0 0 1 -0.436857,-0.43686 0.43685696,0.43685696 0 0 1 0.436857,-0.43686 0.43685696,0.43685696 0 0 1 0.436857,0.43686 z m 4.593971,-0.44356 a 0.43685696,0.43685696 0 0 1 -0.436857,0.43686 0.43685696,0.43685696 0 0 1 -0.436857,-0.43686 0.43685696,0.43685696 0 0 1 0.436857,-0.43685 0.43685696,0.43685696 0 0 1 0.436857,0.43685 z m -1.520767,-2.07521 a 0.43685696,0.43685696 0 0 1 -0.436857,0.43686 0.43685696,0.43685696 0 0 1 -0.436857,-0.43686 0.43685696,0.43685696 0 0 1 0.436857,-0.43685 0.43685696,0.43685696 0 0 1 0.436857,0.43685 z m 36.976859,7.02336 -8.35639,-6.78814 m -35.677362,6.78814 8.356235,-6.78814 M 120.29451,121.4439 c 0,0 1.99598,6.89096 -1.88509,11.94432 M 83.891846,121.4439 c 0,0 -1.996,6.89096 1.885111,11.94432 m 16.288653,21.90845 v 13.65518 m 26.65173,-19.78546 c 0,0 1.82622,4.25178 -5.57737,10.26648 -7.4036,6.01471 -21.07557,14.46639 -21.07557,14.46639 M 75.411297,149.16639 c 0,0 -1.826228,4.25178 5.577406,10.26648 7.403632,6.01471 21.075677,14.46639 21.075677,14.46639 m 24.14431,-25.67373 c 0,0 1.65433,3.66638 -5.05242,8.85297 -6.70675,5.18658 -19.09189,12.47461 -19.09189,12.47461 M 77.919944,148.22553 c 0,0 -1.65434,3.66638 5.052446,8.85297 6.706784,5.18658 19.09198,12.47461 19.09198,12.47461 m 26.70579,-20.43146 c 0,0 -8.75966,-5.2871 -10.61913,-8.75955 m -42.365281,8.75955 c 0,0 8.759542,-5.2871 10.618985,-8.75955 m 2.262698,-13.50897 c 0,0 12.887418,10.27251 26.922778,0 m -27.658837,-0.70438 c 0,0 13.750207,5.7979 28.324177,0 m -0.0328,0.1901 c 0,0 -1.50497,3.37418 -0.16634,3.67517 m -28.085446,-3.67517 c 0,0 1.504921,3.37418 0.166333,3.67517 m -0.174252,0.12673 c 0,0 13.750215,5.7979 28.324175,0 m -28.355857,-3.992 c 0,0 13.750207,5.7979 28.324177,0 m -8.88042,10.96492 -0.80651,13.48657 m 4.74944,-14.56191 -1.07534,12.32161 m 4.52541,-13.71059 -0.94093,10.26054 m -16.825881,-7.79622 0.806506,13.48657 m -4.74942,-14.56191 1.075341,12.32161 m -4.525391,-13.71059 0.940922,10.26054 m 13.503543,8.64424 1.54913,-17.14024 m -5.53617,17.14024 -1.140577,-17.14024 m 18.731627,-5.10472 c 0,0 -4.86227,4.676 -12.68005,4.58153 m -18.370465,-4.58153 c 0,0 4.862296,4.676 12.680104,4.58153 m 20.789911,-15.89287 c 0,0 -3.98772,17.47429 -2.2851,24.06075 M 84.097236,120.40109 c 0,0 4.74942,21.32759 2.15068,23.70229 m 0.606248,0.83312 c 0,0 1.791003,1.51156 3.71699,3.57248 2.544827,2.72311 6.312045,6.30697 11.205646,6.27901 3.64761,-0.0208 7.94918,-2.30182 12.68576,-7.08223 0.99877,-1.00801 1.95582,-1.68344 2.99692,-2.9908 M 84.509661,119.21028 c 0,0 15.777889,9.88495 35.674509,-0.25346"
       d="m 84.480445,78.770605 c -0.396967,0.664756 -0.69231,1.344984 -0.851787,2.025423 0,0 0,0 0,0 l 0,0 c -0.05573,0.216379 -0.103643,0.452246 -0.02828,0.655927 l 0,0 10e-7,0 c 0.01305,0.03583 0.03306,0.07061 0.06385,0.09315 0.01225,0.0089 0.02699,0.01658 0.04213,0.0179 -0.01185,-0.0047 -0.02258,-0.01487 -0.03039,-0.02542 -0.02006,-0.02664 -0.02706,-0.06125 -0.02963,-0.09584 l 0,0 0,0 c -0.01397,-0.199264 0.08676,-0.367781 0.179025,-0.577469 l 0,0 c 0,0 0,0 0,0 0.298681,-0.633452 0.623516,-1.209517 1.022767,-1.873359 0.569933,-0.949375 1.078146,-1.738881 1.474126,-2.570185 -0.58495,0.60666 -1.293834,1.433873 -1.841811,2.349867 z m -1.452951,0.329144 c -0.0069,-0.197873 -0.01066,-0.400659 -0.01403,-0.594198 0,0 0,-10e-7 0,-10e-7 0.073,-0.755233 0.09555,-1.477384 0.06588,-2.101617 -0.187307,0.596202 -0.350165,1.309913 -0.472724,2.069006 0,0 0,0 0,10e-7 -0.01602,0.201751 -0.02339,0.410656 -0.01793,0.62328 0.02871,1.084341 0.397014,2.032823 1.11875,2.466936 -0.522601,-0.649658 -0.644464,-1.425473 -0.679944,-2.463407 z m -1.565744,8.459614 c 0.397962,0.848493 0.873133,1.657643 1.38818,2.419794 2.291331,2.422322 4.495265,4.685385 6.40347,6.574318 -1.749679,-2.035756 -3.841269,-4.381533 -6.085204,-6.82522 -0.490214,-0.754788 -0.94613,-1.546828 -1.331057,-2.367917 -0.608353,-1.297013 -1.027132,-2.639775 -1.14957,-4.020463 -0.253748,-2.712695 0.927471,-5.229557 2.391719,-6.936109 -1.600554,1.587047 -2.956629,4.10033 -2.767879,6.965964 0.101657,1.443373 0.522167,2.849635 1.150341,4.189633 z m 33.32624,-3.354149 c 0.0677,-0.346512 0.12487,-0.693769 0.17428,-1.039617 0.18609,-1.294789 0.2509,-2.558576 0.23978,-3.729495 l 0,0 0,0 c -0.004,-0.41478 -0.0175,-0.813236 -0.041,-1.196933 l 0,0 c -0.007,-0.113088 -0.0147,-0.224296 -0.0236,-0.334268 0,0 0,-10e-7 0,-10e-7 -0.002,-0.02985 -0.005,-0.05953 -0.008,-0.08914 0,0 0,0 0,0 -9.7e-4,-0.01078 -0.002,-0.02181 -0.003,-0.03256 -5.9e-4,0.01075 -0.001,0.02181 -0.002,0.03259 0,0 0,10e-7 0,10e-7 -0.002,0.02964 -0.004,0.05932 -0.006,0.08917 0,0 0,0 0,0 -0.007,0.110138 -0.0149,0.220822 -0.0231,0.333826 l 0,0 c -0.0281,0.384123 -0.0603,0.776573 -0.0975,1.189143 l 0,0 0,0 c -0.10495,1.161858 -0.24044,2.401655 -0.44945,3.674125 -0.0562,0.340251 -0.1161,0.681301 -0.18255,1.020774 -0.19969,1.022128 -0.45092,1.98977 -0.82428,2.905346 -0.4739,1.137588 -1.07215,2.064281 -2.01497,2.49984 1.0004,-0.29102 1.78276,-1.208902 2.32372,-2.36312 0.44018,-0.921547 0.73282,-1.918647 0.9367,-2.95969 z m -21.300716,8.56952 c -1.092011,-0.14439 -2.155584,0.0629 -3.073804,0.689128 0,0 0,0 0,0 -0.687075,0.491185 -1.060901,1.249362 -1.261315,1.940943 -0.07672,0.419036 -0.146923,0.821907 -0.210136,1.206023 0.116925,-0.37125 0.235473,-0.75984 0.354934,-1.163469 0.269441,-0.647582 0.679423,-1.328999 1.301537,-1.703696 10e-7,0 10e-7,0 10e-7,0 0.863719,-0.552053 1.824007,-0.712946 2.833015,-0.566291 2.230812,0.323413 4.375326,2.067147 5.574277,3.565728 -0.990449,-1.679774 -3.047915,-3.640848 -5.518509,-3.968366 z m 2.455398,2.631679 c -0.06146,-0.01993 -0.12297,-0.03951 -0.184485,-0.05879 0,0 0,0 0,0 -1.111732,-0.311417 -2.203328,-0.547732 -3.125265,-0.676408 0.84932,0.380545 1.896186,0.758999 3.001019,1.084774 0,0 0,0 0,0 0.0607,0.01999 0.121429,0.03986 0.18216,0.05964 0.711527,0.231151 1.2958,0.410712 1.948264,0.647815 0,0 0,0 0,0 0.271481,0.09919 0.514173,0.189395 0.74687,0.313654 0.148064,0.08627 0.297437,0.151573 0.349359,0.302599 -0.0077,-0.159577 -0.147294,-0.296378 -0.279254,-0.403901 -0.207225,-0.179997 -0.445896,-0.326049 -0.7028,-0.465269 0,0 0,0 0,0 -0.596757,-0.324243 -1.248365,-0.580699 -1.935868,-0.804114 z m -0.967999,0.908304 c -0.168057,-0.142118 -0.339146,-0.277589 -0.51028,-0.40744 -0.436975,-0.334563 -0.879825,-0.621189 -1.318775,-0.852857 -0.153784,-0.08117 -0.303417,-0.15437 -0.454718,-0.216001 -0.06418,-0.02839 -0.141801,-0.07846 -0.214975,-0.06643 0.07336,0.01211 0.113318,0.07652 0.180379,0.125303 0.127564,0.102718 0.246476,0.205368 0.379417,0.319113 0.443383,0.379647 0.691108,0.593629 1.170659,1.008128 0.161485,0.140707 0.324475,0.279431 0.489029,0.419443 0.870481,0.739432 1.480151,1.27424 2.036917,2.026368 -0.273543,-0.85313 -0.908371,-1.636263 -1.757653,-2.355631 z M 106.86582,68.375513 c -0.22987,-0.08415 -0.46431,-0.156371 -0.70239,-0.215934 -1.70988,-0.422833 -3.49575,-0.28524 -5.16875,0.0813 -3.796473,0.829114 -7.22698,2.711339 -10.156706,4.582799 -1.676278,1.198797 -3.268552,2.345572 -4.757182,3.426191 1.532648,-1.016884 3.162123,-2.106791 4.868538,-3.256419 2.971863,-1.780967 6.407805,-3.586692 10.12921,-4.358836 1.64021,-0.339139 3.36395,-0.46843 4.98116,-0.05992 0.22324,0.05571 0.44329,0.123393 0.65924,0.202334 1.29405,0.472881 2.43641,1.347907 3.23697,2.463497 1.35774,1.881161 1.89101,4.257596 2.15713,6.509445 0.47084,4.028102 0.0826,8.117716 -0.34022,11.488644 0.56553,-3.357127 1.07358,-7.429794 0.66973,-11.524135 -0.22235,-2.283559 -0.74593,-4.724097 -2.14913,-6.714634 -0.84322,-1.189481 -2.04961,-2.119731 -3.4276,-2.624334 z m 9.24122,21.383149 c -0.13766,0.343333 -0.28844,0.681075 -0.45156,1.012066 -1.19258,2.425388 -3.02102,4.425223 -4.91981,6.010792 -1.07518,0.751801 -2.09184,1.472742 -3.03438,2.151764 0.99092,-0.606134 2.05207,-1.266304 3.16667,-1.97004 1.99193,-1.508027 3.9143,-3.503576 5.16827,-6.003388 0.1702,-0.340015 0.32675,-0.687607 0.46882,-1.041518 0.72734,-1.812811 1.05508,-3.740747 0.93701,-5.61511 -0.16697,-2.657131 -1.3553,-4.919671 -2.96063,-6.343692 1.4904,1.537478 2.51823,3.795146 2.61025,6.361067 0.0651,1.820397 -0.27979,3.681078 -0.98464,5.438059 z m -14.095,10.152496 c -0.77413,5.99e-4 -1.53914,0.08524 -2.276406,0.247312 0,0 0,0 0,0 l 0,0 c -1.036844,0.22778 -1.987994,0.57851 -2.829967,0.9995 l 0,0 c -0.277184,0.13858 -0.539218,0.28306 -0.78682,0.43565 l 0,0 c -0.07088,0.0437 -0.140219,0.0878 -0.208098,0.13309 0,0 -10e-7,0 -10e-7,0 -0.01831,0.0122 -0.03647,0.0245 -0.05448,0.0369 0,0 0,0 0,0 -0.0067,0.005 -0.01349,0.009 -0.0201,0.014 0.0072,-0.004 0.01461,-0.007 0.02188,-0.0109 0,0 0,0 0,0 0.01959,-0.01 0.03929,-0.0191 0.05912,-0.0285 0,0 0,0 0,0 0.07354,-0.0349 0.148089,-0.0687 0.224036,-0.10216 l 0,0 c 0.265132,-0.11689 0.53961,-0.22665 0.827429,-0.33285 l 10e-7,0 c 0.873379,-0.32218 1.824064,-0.59345 2.840781,-0.77167 l 10e-7,0 c 0,0 0,0 0,0 0.718902,-0.12582 1.457202,-0.19134 2.202932,-0.19181 2.35932,-0.002 4.42456,0.63535 6.08485,1.59662 -1.50037,-1.19709 -3.63451,-2.026301 -6.08516,-2.025282 z m 6.77544,-9.265381 c -0.20781,0.710345 -0.42442,1.416555 -0.6395,2.111956 0,10e-7 0,10e-7 0,10e-7 l 0,0 c -0.40363,1.302322 -0.80366,2.513988 -1.19678,3.670023 l 0,0 0,10e-7 c -0.12851,0.377892 -0.25142,0.73555 -0.37503,1.089173 l 0,0 c -0.035,0.100054 -0.0695,0.198292 -0.10423,0.296071 0,0 0,0 0,0 -0.009,0.02612 -0.0185,0.05211 -0.0279,0.07804 0,0 0,0 0,0 -0.003,0.0094 -0.007,0.01905 -0.0102,0.02845 0.005,-0.0089 0.009,-0.01802 0.0137,-0.02697 0,0 0,-10e-7 0,-10e-7 0.0125,-0.02459 0.0249,-0.04926 0.0373,-0.07406 0,0 0,0 0,0 0.0464,-0.09272 0.0925,-0.186528 0.13869,-0.281844 l 0,0 c 0.16255,-0.335356 0.32375,-0.683591 0.48542,-1.047089 l 0,0 0,0 c 0.49366,-1.109903 0.97323,-2.320085 1.41501,-3.609117 l 0,0 c 0,0 0,-1e-6 0,-1e-6 0.23736,-0.69121 0.46612,-1.397629 0.67597,-2.113883 0.81116,-2.771714 1.2084,-5.266655 1.09944,-7.579261 -0.18544,2.360504 -0.68977,4.651425 -1.51191,7.45851 z m -1.46181,-2.594794 c -0.0244,-0.729524 -0.0747,-1.455645 -0.14266,-2.174366 0,0 0,-10e-7 0,-10e-7 l 0,0 c -0.1956,-2.077271 -0.54625,-4.056809 -0.97082,-5.873191 l 0,0 0,-10e-7 0,0 c -0.14732,-0.630272 -0.30186,-1.232723 -0.46538,-1.811725 l 0,0 c -0.0476,-0.168606 -0.0957,-0.334191 -0.14508,-0.497717 l 0,0 c 0,-1e-6 0,-1e-6 0,-1e-6 -0.0133,-0.04394 -0.0266,-0.08763 -0.0401,-0.131155 0,0 0,-10e-7 0,-10e-7 -0.004,-0.01142 -0.007,-0.02281 -0.0107,-0.03419 -0.001,-0.0042 -0.003,-0.0084 -0.004,-0.01252 9.4e-4,0.0043 0.002,0.0086 0.003,0.01282 0.003,0.01165 0.005,0.02332 0.008,0.035 0,10e-7 0,10e-7 0,10e-7 0.01,0.04455 0.019,0.08921 0.0283,0.13413 0,0 0,0 0,0 l 0,0 c 0.0349,0.167239 0.0687,0.335832 0.1025,0.507646 l 0,0 c 0.11606,0.590657 0.22674,1.198593 0.33492,1.835832 l 0,0 0,10e-7 0,0 c 0.31143,1.834761 0.58625,3.807902 0.7494,5.870652 l 0,0 c 0,0 0,10e-7 0,10e-7 0.0562,0.713774 0.10043,1.432788 0.12454,2.153146 0.0535,1.58716 0.007,3.13013 -0.20207,4.641148 -0.31067,2.200111 -0.91733,4.064286 -2.16212,5.43482 1.36357,-1.253628 2.13355,-3.154399 2.51004,-5.380811 0.26255,-1.529659 0.33619,-3.10363 0.28274,-4.709512 z m -2.1508,1.742454 c 0.005,-1.411779 -0.0642,-2.784943 -0.19814,-3.913148 -0.14319,1.126822 -0.22397,2.499401 -0.23018,3.911412 -0.005,1.412131 0.0642,2.785691 0.19814,3.914177 0.14323,-1.127103 0.22401,-2.500078 0.23018,-3.912441 z m -1.86736,-1.763566 c -0.20445,-0.763104 -0.44474,-1.513078 -0.70809,-2.246566 0,0 0,0 0,0 l 0,0 c -0.64798,-1.80697 -1.42975,-3.479696 -2.25158,-4.982829 l 0,0 0,-10e-7 0,0 c -0.28298,-0.517606 -0.567285,-1.008448 -0.855831,-1.475904 l 0,0 C 99.408245,79.18887 99.324635,79.05596 99.240147,78.925279 l 0,0 c 0,0 0,-10e-7 0,-10e-7 -0.02269,-0.0351 -0.0454,-0.06996 -0.06825,-0.104623 0,0 0,0 0,0 -0.006,-0.0091 -0.01201,-0.01819 -0.01804,-0.02725 -0.0022,-0.0033 -0.0045,-0.0067 -0.0067,-0.01004 0.0019,0.0035 0.0038,0.0071 0.0057,0.01062 0.0051,0.0096 0.01027,0.01919 0.01538,0.02882 0,0 10e-7,0 10e-7,0 0.01948,0.03664 0.03883,0.07344 0.05818,0.110468 0,0 0,0 0,0 l 0,0 c 0.07206,0.137895 0.143308,0.277335 0.21504,0.419574 l 0,0 c 0.247314,0.490406 0.492148,0.997954 0.739871,1.531684 l 0,0 0,0 0,0 c 0.71872,1.548606 1.42462,3.23401 2.0335,5.032831 l 0,0 c 0,0 0,0 0,0 0.24692,0.730387 0.47726,1.472593 0.67851,2.223493 0.3577,1.333454 0.61401,2.658578 0.72397,3.987963 0.18001,2.216433 -0.0898,4.190061 -0.95374,5.822423 1.01529,-1.544153 1.43728,-3.576777 1.3167,-5.846744 -0.0702,-1.360126 -0.31023,-2.720231 -0.67277,-4.074628 z m -2.89209,3.880289 c -0.38331,-2.166154 -0.828323,-4.259822 -1.268157,-5.966389 0.171702,1.753554 0.471333,3.872958 0.853847,6.039627 0.38338,2.1667 0.82849,4.260974 1.26844,5.967967 -0.17175,-1.753992 -0.47148,-3.874003 -0.85413,-6.041205 z m -1.316723,-0.118767 c -0.205846,-0.481394 -0.430135,-0.950317 -0.662773,-1.404089 0,0 0,0 0,0 l 0,0 c -0.445313,-0.87276 -0.928952,-1.675517 -1.423413,-2.395083 l 0,0 0,0 c -0.16359,-0.238073 -0.32643,-0.464192 -0.490075,-0.679434 l 0,0 c -0.04687,-0.06165 -0.09359,-0.122111 -0.140564,-0.181577 0,0 0,0 0,0 -0.01268,-0.01604 -0.02535,-0.03199 -0.03807,-0.04784 0,0 0,-10e-7 0,-10e-7 -0.0048,-0.0059 -0.0096,-0.01193 -0.01437,-0.01781 0.0037,0.0066 0.0074,0.01337 0.01101,0.02001 0,0 0,0 0,0 0.0098,0.0178 0.01947,0.03566 0.02921,0.05361 0,0 0,0 0,0 0.03613,0.06662 0.07203,0.133677 0.108409,0.20202 l 0,0 c 0.127446,0.239427 0.254371,0.482644 0.386646,0.739418 l 0,0 0,0 c 0.399928,0.776378 0.807685,1.597037 1.213947,2.479993 l 0,0 c 0,0 0,0 0,0 0.210112,0.458906 0.421462,0.927681 0.623132,1.400321 0.816961,1.912347 1.305276,3.509632 1.435756,5.185938 0.16226,-1.647158 -0.221915,-3.442713 -1.038853,-5.355486 z M 96.134283,90.61723 c -0.730613,-0.764115 -1.545803,-1.400627 -2.439451,-1.876647 -1.065956,-0.287719 -2.069501,-0.536325 -2.966114,-0.734274 0.854382,0.335334 1.812286,0.684158 2.836898,1.033121 0.836175,0.513032 1.590595,1.143294 2.290304,1.882171 1.470813,1.551963 2.586526,3.478597 3.430336,5.015583 -0.599121,-1.665293 -1.593013,-3.688316 -3.151973,-5.319954 z m 20.294667,18.41593 c 1.18348,1.34701 2.10151,2.84978 2.51018,4.49455 -0.1749,1.7722 -0.31889,3.44045 -0.42645,4.94666 0.24591,-1.49001 0.49655,-3.16732 0.74268,-4.96419 -0.3625,-1.73381 -1.28265,-3.34534 -2.50283,-4.75318 -0.11192,-0.12906 -0.22592,-0.25592 -0.34173,-0.38052 0,0 0,0 0,0 -2.47379,-2.64299 -5.64707,-4.35166 -8.24804,-5.49461 2.47602,1.37299 5.54974,3.20968 7.93529,5.78581 0,0 0,0 0,0 0.11195,0.12003 0.22235,0.24187 0.3309,0.36548 z m -29.227251,-0.27617 c -1.220127,1.4077 -2.140402,3.01922 -2.502988,4.75318 0.246045,1.79667 0.496617,3.47399 0.742485,4.96423 -0.107471,-1.50601 -0.251398,-3.17429 -0.426263,-4.9467 0.408712,-1.6447 1.326722,-3.14745 2.510342,-4.49454 0.108554,-0.12361 0.218949,-0.24544 0.330906,-0.36547 0,0 10e-7,0 10e-7,0 2.385357,-2.57578 5.458651,-4.41225 7.935453,-5.78552 -2.600287,1.1425 -5.774033,2.85107 -8.248209,5.49432 0,0 -10e-7,0 -10e-7,0 -0.115811,0.12459 -0.229813,0.25145 -0.341726,0.3805 z m 17.383581,3.14444 c -0.026,0.16353 -0.0511,0.32682 -0.0756,0.48969 0,0 0,0 0,0 -0.2394,3.61924 -0.40279,7.12136 -0.46708,10.01906 0.32826,-2.8791 0.63941,-6.3608 0.89127,-9.97202 0,0 0,0 0,0 0.0255,-0.16164 0.0513,-0.32353 0.0775,-0.48543 0.33565,-2.07695 0.72872,-4.0078 1.6616,-5.71207 0.37804,-0.6842 0.83448,-1.29473 1.47402,-1.62234 0,0 0,0 0,0 0.64358,-0.33797 1.43684,-0.26484 2.07389,-0.0135 -0.61189,-0.3086 -1.41693,-0.45522 -2.14702,-0.14037 0,0 0,0 0,0 -0.70555,0.31164 -1.24178,0.9313 -1.65788,1.62849 -1.03577,1.7202 -1.49725,3.71527 -1.83062,5.8085 z m -5.455552,0.0597 c 0.02622,0.16211 0.05197,0.32421 0.07752,0.48605 0.363026,2.32521 0.565195,4.62497 0.712555,6.76643 l 0,0 0,0 0,0 c 0.05514,0.80174 0.100379,1.56511 0.137519,2.30414 l 0,0 c 0.0112,0.22236 0.0215,0.43963 0.0306,0.65529 l 0,0 c 0,0 0,0 0,0 0.002,0.0586 0.005,0.11682 0.007,0.17492 0,0 0,0 0,0 5.8e-4,0.0153 0.001,0.0305 0.002,0.0457 2e-4,0.005 4e-4,0.011 5.8e-4,0.0165 3.2e-4,-0.005 6.2e-4,-0.011 9.3e-4,-0.0165 8.4e-4,-0.0152 0.002,-0.0304 0.002,-0.0457 0,0 0,0 0,0 0.003,-0.0581 0.006,-0.11631 0.009,-0.17491 0,0 0,0 0,0 l 0,0 c 0.01,-0.21542 0.0179,-0.43363 0.0245,-0.65611 l 0,0 c 0.022,-0.73848 0.0284,-1.50885 0.0182,-2.3128 l 0,0 0,0 0,0 c -0.0272,-2.1506 -0.164725,-4.47325 -0.522371,-6.82212 -0.02449,-0.16265 -0.04959,-0.3257 -0.07556,-0.48899 -0.332988,-2.0901 -0.794026,-4.08177 -1.82963,-5.80024 -0.416053,-0.69718 -0.952281,-1.31691 -1.657901,-1.62863 0,0 -10e-7,0 -10e-7,0 -0.730124,-0.31489 -1.535233,-0.16835 -2.147246,0.14028 0.637066,-0.25131 1.43042,-0.32445 2.074108,0.0136 0,0 0,0 0,0 0.639566,0.32766 1.096008,0.9382 1.474047,1.62248 0.932991,1.70615 1.326369,3.64044 1.662286,5.72058 z m 8.143402,0.71444 c -0.0624,0.20581 -0.12266,0.41146 -0.18143,0.61639 -0.62015,2.1436 -1.00399,4.29502 -1.2557,6.29576 l 0,0 0,0 0,0 c -0.0945,0.75102 -0.16823,1.47285 -0.22243,2.16685 l 0,0 c -0.0163,0.20931 -0.0308,0.41481 -0.043,0.61792 l 0,0 c 0,0 0,0 0,0 -0.003,0.0553 -0.006,0.1103 -0.009,0.16514 0,0 0,0 0,0 -7.6e-4,0.0144 -0.002,0.0288 -0.002,0.0432 -2.6e-4,0.005 -5.2e-4,0.0105 -7.6e-4,0.0157 7.3e-4,-0.005 0.001,-0.0104 0.002,-0.0155 0.002,-0.0142 0.004,-0.0285 0.006,-0.0428 0,0 0,-1e-5 0,-1e-5 0.008,-0.0543 0.0163,-0.10871 0.0247,-0.16348 0,0 0,0 0,0 l 0,0 c 0.0309,-0.20125 0.0633,-0.40393 0.0971,-0.61113 l 0,0 c 0.11222,-0.68755 0.23604,-1.39734 0.37451,-2.14047 l 0,0 0,0 0,0 c 0.3683,-1.97599 0.81434,-4.09706 1.43815,-6.21153 0.0605,-0.20321 0.12158,-0.40697 0.18392,-0.61048 0.55633,-1.8177 1.18037,-3.50388 2.29788,-4.85974 0.4818,-0.58097 1.0541,-1.05862 1.72943,-1.23556 0,0 0,0 0,0 0.75312,-0.20509 1.56914,0.0248 2.21038,0.3702 -0.60579,-0.40531 -1.41664,-0.71325 -2.25239,-0.55275 0,0 0,0 0,0 -0.73984,0.14872 -1.39387,0.62075 -1.92257,1.21612 -1.21936,1.36449 -1.91796,3.10128 -2.47473,4.93619 z m -10.698115,0.11626 c 0.06226,0.20318 0.123304,0.40663 0.183696,0.60954 0,0 0,0 0,0 0.636485,3.33961 1.314421,6.54475 1.945053,9.19518 -0.374817,-2.69795 -0.909327,-5.94211 -1.530908,-9.29436 0,0 0,0 0,0 -0.05885,-0.20529 -0.119192,-0.41132 -0.181675,-0.61752 -0.557397,-1.83791 -1.256817,-3.57861 -2.476711,-4.94539 -0.528673,-0.59538 -1.182729,-1.06747 -1.922657,-1.21625 -10e-7,0 -10e-7,0 -10e-7,0 -0.835797,-0.16053 -1.646734,0.14733 -2.25267,0.55269 0.641257,-0.34539 1.457392,-0.57528 2.210653,-0.37013 0,0 0,0 0,0 0.67537,0.17698 1.247701,0.65464 1.729527,1.23568 1.116933,1.35366 1.740074,3.03589 2.295693,4.85056 z m 11.396095,8.58886 c 0.013,0.22823 -0.2257,0.49405 -0.46703,0.51637 -0.2837,0.0481 -0.61167,-0.20789 -0.681,-0.51654 -0.071,0.31591 0.1663,0.79651 0.681,0.84566 0.44824,0.0234 0.88146,-0.33764 0.89533,-0.84529 0,0 1e-5,-3.7e-4 1e-5,-3.7e-4 -0.0136,-0.50779 -0.44686,-0.86915 -0.89534,-0.84581 0,0 0,0 0,0 -0.51473,0.0491 -0.75232,0.52964 -0.68134,0.84581 0.0694,-0.30878 0.39749,-0.56484 0.68134,-0.51669 0,0 0,0 0,0 0.24145,0.0224 0.4802,0.28839 0.46702,0.51669 0,0 10e-6,1.7e-4 10e-6,1.7e-4 z m 5.29101,-1.07718 c 0.013,0.22823 -0.22569,0.49403 -0.46702,0.51635 -0.28371,0.0481 -0.61168,-0.20788 -0.68101,-0.51654 -0.0711,0.31591 0.16629,0.79653 0.68101,0.84567 0.44823,0.0234 0.88145,-0.33764 0.89532,-0.84528 0,0 1e-5,-3.9e-4 1e-5,-3.9e-4 -0.0136,-0.50778 -0.44686,-0.86913 -0.89533,-0.8458 0,0 0,0 0,0 -0.51473,0.0491 -0.75233,0.52963 -0.68135,0.8458 0.0694,-0.30878 0.3975,-0.56483 0.68135,-0.51668 0,0 0,0 0,0 0.24144,0.0224 0.48018,0.28839 0.46701,0.51668 0,0 10e-6,1.9e-4 10e-6,1.9e-4 z m 4.02369,-1.52079 c 0.013,0.22823 -0.22569,0.49403 -0.46702,0.51636 -0.2837,0.0481 -0.61168,-0.20789 -0.68101,-0.51654 -0.0711,0.31591 0.1663,0.79652 0.68101,0.84566 0.44823,0.0234 0.88145,-0.33764 0.89532,-0.84528 0,0 10e-6,-3.8e-4 10e-6,-3.8e-4 -0.0136,-0.50778 -0.44686,-0.86913 -0.89533,-0.84581 0,0 0,0 0,0 -0.51473,0.0491 -0.75233,0.52964 -0.68135,0.84581 0.0694,-0.30878 0.3975,-0.56483 0.68135,-0.51668 0,0 0,0 0,0 0.24144,0.0224 0.48018,0.28839 0.46701,0.51668 0,0 1e-5,1.8e-4 1e-5,1.8e-4 z m -21.394503,2.59817 c 0.01382,0.5076 0.446967,0.86876 0.895329,0.84543 0.514723,-0.0491 0.752318,-0.52963 0.681343,-0.8458 -0.06941,0.30878 -0.397497,0.56483 -0.681343,0.51668 -0.241388,-0.0224 -0.480067,-0.28825 -0.467019,-0.51651 0,0 9e-6,-1.7e-4 9e-6,-1.7e-4 -0.01313,-0.22828 0.225622,-0.49422 0.46701,-0.51654 0,0 0,0 0,0 0.283705,-0.0481 0.611681,0.20789 0.681005,0.51655 0.07106,-0.31592 -0.166288,-0.79654 -0.681005,-0.84568 0,0 0,0 0,0 -0.448353,-0.0234 -0.881682,0.33784 -0.895338,0.84567 0,0 9e-6,3.7e-4 9e-6,3.7e-4 z m -5.290984,-1.07718 c 0.01383,0.5076 0.446969,0.86875 0.895328,0.84542 0.51473,-0.0491 0.752323,-0.52964 0.681343,-0.84581 -0.06941,0.30878 -0.397495,0.56484 -0.681343,0.51669 -0.241385,-0.0224 -0.480061,-0.28825 -0.46702,-0.5165 0,0 10e-6,-1.9e-4 10e-6,-1.9e-4 -0.01313,-0.22827 0.225624,-0.49421 0.46701,-0.51654 0,0 0,0 0,0 0.283703,-0.0481 0.611677,0.20789 0.681005,0.51655 0.07106,-0.31591 -0.166294,-0.79653 -0.681005,-0.84567 0,0 0,0 0,0 -0.448348,-0.0234 -0.881675,0.33783 -0.895338,0.84566 0,0 1e-5,3.9e-4 1e-5,3.9e-4 z m -4.023681,-1.52079 c 0.01383,0.5076 0.44697,0.86875 0.895328,0.84542 0.514724,-0.0491 0.752318,-0.52963 0.681343,-0.8458 -0.06941,0.30878 -0.397498,0.56483 -0.681343,0.51668 -0.241385,-0.0224 -0.480062,-0.28825 -0.467019,-0.5165 0,0 9e-6,-1.8e-4 9e-6,-1.8e-4 -0.01313,-0.22827 0.225624,-0.49421 0.46701,-0.51654 0,0 0,0 0,0 0.283703,-0.0481 0.611676,0.20789 0.681005,0.51654 0.07106,-0.31591 -0.166294,-0.79652 -0.681005,-0.84566 0,0 0,0 0,0 -0.448348,-0.0234 -0.881675,0.33783 -0.895338,0.84566 0,0 1e-5,3.8e-4 1e-5,3.8e-4 z m 17.021708,48.46569 c 0.0129,0.0955 -0.10498,0.25009 -0.22382,0.27215 -0.14078,0.0471 -0.36861,-0.0744 -0.43781,-0.27222 -0.0716,0.2044 0.0671,0.55247 0.43781,0.60134 0.32467,0.0238 0.63791,-0.22505 0.65212,-0.60107 0,0 1e-5,-2.7e-4 1e-5,-2.7e-4 -0.014,-0.37613 -0.32726,-0.62523 -0.65213,-0.6015 0,0 0,0 0,0 -0.37076,0.0488 -0.50968,0.39686 -0.43815,0.6015 0.0693,-0.19796 0.29724,-0.31949 0.43815,-0.27237 0,0 0,0 0,0 0.11894,0.0221 0.23679,0.1769 0.22381,0.27237 0,0 1e-5,7e-5 1e-5,7e-5 z m -2.53154,0 c 0.0129,0.0955 -0.10498,0.25009 -0.22382,0.27215 -0.14078,0.0471 -0.36861,-0.0744 -0.43781,-0.27222 -0.0716,0.2044 0.0671,0.55247 0.43781,0.60134 0.32467,0.0238 0.63791,-0.22505 0.65212,-0.60107 0,0 1e-5,-2.7e-4 1e-5,-2.7e-4 -0.014,-0.37613 -0.32726,-0.62523 -0.65213,-0.6015 0,0 0,0 0,0 -0.37076,0.0488 -0.50968,0.39686 -0.43815,0.6015 0.0693,-0.19796 0.29724,-0.31949 0.43815,-0.27237 0,0 0,0 0,0 0.11894,0.0221 0.23679,0.1769 0.22381,0.27237 0,0 1e-5,7e-5 1e-5,7e-5 z m 2.53154,-5.33191 c 0.0129,0.0955 -0.10498,0.25009 -0.22382,0.27215 -0.14078,0.0471 -0.36861,-0.0744 -0.43781,-0.27222 -0.0716,0.2044 0.0671,0.55247 0.43781,0.60134 0.32467,0.0238 0.63791,-0.22505 0.65212,-0.60107 0,0 1e-5,-2.7e-4 1e-5,-2.7e-4 -0.014,-0.37613 -0.32726,-0.62523 -0.65213,-0.6015 0,0 0,0 0,0 -0.37076,0.0488 -0.50968,0.39686 -0.43815,0.6015 0.0693,-0.19796 0.29724,-0.31949 0.43815,-0.27237 0,0 0,0 0,0 0.11894,0.0221 0.23679,0.1769 0.22381,0.27237 0,0 1e-5,7e-5 1e-5,7e-5 z m -2.53154,0 c 0.0129,0.0955 -0.10498,0.25009 -0.22382,0.27215 -0.14078,0.0471 -0.36861,-0.0744 -0.43781,-0.27222 -0.0716,0.2044 0.0671,0.55247 0.43781,0.60134 0.32467,0.0238 0.63791,-0.22505 0.65212,-0.60107 0,0 1e-5,-2.7e-4 1e-5,-2.7e-4 -0.014,-0.37613 -0.32726,-0.62523 -0.65213,-0.6015 0,0 0,0 0,0 -0.37076,0.0488 -0.50968,0.39686 -0.43815,0.6015 0.0693,-0.19796 0.29724,-0.31949 0.43815,-0.27237 0,0 0,0 0,0 0.11894,0.0221 0.23679,0.1769 0.22381,0.27237 0,0 1e-5,7e-5 1e-5,7e-5 z m 2.53154,-5.71273 c 0.0129,0.0954 -0.10498,0.25009 -0.22382,0.27214 -0.14079,0.0471 -0.36861,-0.0744 -0.43781,-0.27222 -0.0716,0.20441 0.0671,0.55248 0.43781,0.60135 0.32467,0.0238 0.63791,-0.22505 0.65212,-0.60107 0,0 1e-5,-2.8e-4 1e-5,-2.8e-4 -0.014,-0.37613 -0.32726,-0.62523 -0.65213,-0.6015 0,0 0,0 0,0 -0.37076,0.0488 -0.50968,0.39686 -0.43815,0.6015 0.0693,-0.19796 0.29724,-0.31949 0.43815,-0.27237 0,0 0,0 0,0 0.11894,0.0221 0.23679,0.1769 0.22381,0.27237 0,0 1e-5,8e-5 1e-5,8e-5 z m -2.53154,0 c 0.0129,0.0954 -0.10498,0.25009 -0.22382,0.27214 -0.14079,0.0471 -0.36861,-0.0744 -0.43781,-0.27222 -0.0716,0.20441 0.0671,0.55248 0.43781,0.60135 0.32467,0.0238 0.63791,-0.22505 0.65212,-0.60107 0,0 1e-5,-2.8e-4 1e-5,-2.8e-4 -0.014,-0.37613 -0.32726,-0.62523 -0.65213,-0.6015 0,0 0,0 0,0 -0.37076,0.0488 -0.50968,0.39686 -0.43815,0.6015 0.0693,-0.19796 0.29724,-0.31949 0.43815,-0.27237 0,0 0,0 0,0 0.11894,0.0221 0.23679,0.1769 0.22381,0.27237 0,0 1e-5,8e-5 1e-5,8e-5 z m 23.07439,-4.65313 c 0.0129,0.0955 -0.10498,0.25009 -0.22383,0.27215 -0.14078,0.0471 -0.3686,-0.0744 -0.4378,-0.27222 -0.0716,0.2044 0.0671,0.55246 0.4378,0.60134 0.32467,0.0238 0.63792,-0.22505 0.65213,-0.60107 0,0 10e-6,-2.7e-4 10e-6,-2.7e-4 -0.014,-0.37614 -0.32727,-0.62524 -0.65214,-0.60149 0,0 0,0 0,0 -0.37076,0.0488 -0.50967,0.39685 -0.43814,0.60149 0.0693,-0.19796 0.29723,-0.31948 0.43814,-0.27237 0,0 0,0 0,0 0.11895,0.0221 0.2368,0.1769 0.22382,0.27237 0,0 1e-5,7e-5 1e-5,7e-5 z m -1.58544,2.33028 c 0.0129,0.0955 -0.10499,0.25009 -0.22383,0.27214 -0.14079,0.0471 -0.36861,-0.0744 -0.43781,-0.27222 -0.0716,0.20441 0.0671,0.55248 0.43781,0.60135 0.32467,0.0238 0.63791,-0.22504 0.65213,-0.60106 0,0 1e-5,-2.9e-4 1e-5,-2.9e-4 -0.014,-0.37614 -0.32728,-0.62523 -0.65214,-0.60148 0,0 0,0 0,0 -0.37076,0.0488 -0.50968,0.39684 -0.43815,0.60148 0.0693,-0.19795 0.29724,-0.31948 0.43815,-0.27236 0,0 0,0 0,0 0.11894,0.0221 0.2368,0.17689 0.22382,0.27236 0,0 1e-5,8e-5 1e-5,8e-5 z m -3.32415,-2.36353 c 0.0129,0.0955 -0.10499,0.25009 -0.22383,0.27215 -0.14078,0.0471 -0.36861,-0.0744 -0.43781,-0.27222 -0.0716,0.2044 0.0671,0.55247 0.43781,0.60134 0.32467,0.0238 0.63792,-0.22505 0.65213,-0.60107 0,0 1e-5,-2.7e-4 1e-5,-2.7e-4 -0.014,-0.37614 -0.32727,-0.62524 -0.65214,-0.6015 0,0 0,0 0,0 -0.37076,0.0488 -0.50968,0.39686 -0.43815,0.6015 0.0693,-0.19796 0.29724,-0.31949 0.43815,-0.27237 0,0 0,0 0,0 0.11894,0.0221 0.2368,0.1769 0.22382,0.27237 0,0 1e-5,7e-5 1e-5,7e-5 z m 1.54055,-2.48707 c 0.0129,0.0955 -0.10499,0.25009 -0.22383,0.27215 -0.14079,0.0471 -0.36861,-0.0744 -0.43781,-0.27223 -0.0716,0.20441 0.0671,0.55248 0.43781,0.60135 0.32467,0.0238 0.63792,-0.22505 0.65213,-0.60107 0,0 10e-6,-2.8e-4 10e-6,-2.8e-4 -0.014,-0.37614 -0.32727,-0.62524 -0.65214,-0.60149 0,0 0,0 0,0 -0.37076,0.0488 -0.50968,0.39685 -0.43815,0.60149 0.0693,-0.19796 0.29724,-0.31949 0.43815,-0.27237 0,0 0,0 0,0 0.11894,0.0221 0.2368,0.1769 0.22382,0.27237 0,0 1e-5,8e-5 1e-5,8e-5 z m -4.60576,-0.44356 c 0.0129,0.0955 -0.10499,0.25009 -0.22383,0.27215 -0.14078,0.0471 -0.3686,-0.0744 -0.4378,-0.27223 -0.0716,0.2044 0.0671,0.55247 0.4378,0.60135 0.32466,0.0238 0.63791,-0.22504 0.65213,-0.60106 0,0 1e-5,-2.9e-4 1e-5,-2.9e-4 -0.014,-0.37614 -0.32728,-0.62523 -0.65214,-0.60148 0,0 0,0 0,0 -0.37075,0.0488 -0.50967,0.39684 -0.43814,0.60148 0.0693,-0.19795 0.29724,-0.31947 0.43814,-0.27236 0,0 0,0 0,0 0.11895,0.0221 0.2368,0.17689 0.22382,0.27236 0,0 10e-6,8e-5 10e-6,8e-5 z m 1.52467,-2.07521 c 0.0129,0.0955 -0.10498,0.25009 -0.22382,0.27214 -0.14079,0.0471 -0.36861,-0.0744 -0.43781,-0.27222 -0.0716,0.20441 0.0671,0.55248 0.43781,0.60135 0.32466,0.0238 0.6379,-0.22505 0.65212,-0.60106 0,0 1e-5,-2.9e-4 1e-5,-2.9e-4 -0.014,-0.37613 -0.32727,-0.62522 -0.65213,-0.60148 0,0 0,0 0,0 -0.37076,0.0488 -0.50968,0.39684 -0.43815,0.60148 0.0693,-0.19795 0.29724,-0.31948 0.43815,-0.27236 0,0 0,0 0,0 0.11894,0.0221 0.23679,0.1769 0.22381,0.27236 0,0 1e-5,8e-5 1e-5,8e-5 z m -38.068538,5.03929 c 0.0138,0.37531 0.326208,0.62469 0.651012,0.60121 0.370707,-0.0491 0.508532,-0.39716 0.437026,-0.60148 -0.06929,0.1977 -0.296811,0.31974 -0.437026,0.27236 -0.118319,-0.0219 -0.235293,-0.17672 -0.222702,-0.27229 0,0 9e-6,-7e-5 9e-6,-7e-5 -0.01261,-0.0956 0.104418,-0.25043 0.222693,-0.27222 0,0 0,0 0,0 0.140093,-0.0473 0.367491,0.0747 0.436688,0.27223 0.07159,-0.20409 -0.06601,-0.55219 -0.436688,-0.60136 0,0 0,0 0,0 -0.324777,-0.0235 -0.637321,0.22587 -0.651021,0.60135 0,0 9e-6,2.7e-4 9e-6,2.7e-4 z m 1.581415,2.33029 c 0.01381,0.3753 0.32621,0.62468 0.651011,0.60121 0.370714,-0.0491 0.508537,-0.39718 0.437026,-0.6015 -0.06928,0.1977 -0.29681,0.31975 -0.437026,0.27237 -0.118316,-0.0219 -0.235288,-0.17671 -0.222703,-0.27229 0,0 1e-5,-8e-5 1e-5,-8e-5 -0.01261,-0.0956 0.104419,-0.25042 0.222693,-0.27222 0,0 0,0 0,0 0.140092,-0.0473 0.367487,0.0747 0.436688,0.27223 0.07159,-0.20409 -0.06602,-0.55218 -0.436688,-0.60135 0,0 0,0 0,0 -0.324771,-0.0235 -0.637312,0.22586 -0.651021,0.60134 0,0 1e-5,2.9e-4 1e-5,2.9e-4 z m 3.315634,-2.36354 c 0.0138,0.37531 0.326208,0.62469 0.651012,0.60121 0.370707,-0.0491 0.508532,-0.39716 0.437026,-0.60148 -0.06929,0.1977 -0.296811,0.31974 -0.437026,0.27236 -0.118319,-0.0219 -0.235293,-0.17672 -0.222702,-0.27229 0,0 9e-6,-7e-5 9e-6,-7e-5 -0.01261,-0.0956 0.104418,-0.25043 0.222693,-0.27222 0,0 0,0 0,0 0.140093,-0.0473 0.367491,0.0747 0.436688,0.27223 0.07159,-0.20409 -0.06601,-0.55219 -0.436688,-0.60136 0,0 0,0 0,0 -0.324777,-0.0235 -0.637321,0.22587 -0.651021,0.60135 0,0 9e-6,2.7e-4 9e-6,2.7e-4 z m -1.536613,-2.48707 c 0.0138,0.37531 0.326207,0.62469 0.651012,0.60121 0.370713,-0.0491 0.508537,-0.39717 0.437026,-0.60149 -0.06928,0.1977 -0.29681,0.31975 -0.437026,0.27237 -0.118319,-0.0219 -0.235292,-0.17672 -0.222702,-0.27229 0,0 9e-6,-8e-5 9e-6,-8e-5 -0.01261,-0.0956 0.104418,-0.25043 0.222693,-0.27222 0,0 0,0 0,0 0.140094,-0.0473 0.367491,0.0747 0.436688,0.27223 0.07159,-0.20409 -0.06601,-0.55219 -0.436688,-0.60136 0,0 0,0 0,0 -0.324776,-0.0235 -0.63732,0.22587 -0.651021,0.60135 0,0 9e-6,2.8e-4 9e-6,2.8e-4 z m 4.593972,-0.44355 c 0.01381,0.3753 0.32621,0.62468 0.651011,0.60121 0.370714,-0.0491 0.508537,-0.39718 0.437026,-0.6015 -0.06928,0.1977 -0.29681,0.31975 -0.437026,0.27237 -0.118316,-0.0219 -0.235288,-0.17671 -0.222703,-0.27229 0,0 1e-5,-8e-5 1e-5,-8e-5 -0.01261,-0.0956 0.104419,-0.25042 0.222693,-0.27222 0,0 0,0 0,0 0.140092,-0.0473 0.367487,0.0747 0.436688,0.27223 0.07159,-0.20409 -0.06602,-0.55218 -0.436688,-0.60135 0,0 0,0 0,0 -0.324771,-0.0235 -0.637312,0.22586 -0.651021,0.60134 0,0 10e-6,2.9e-4 10e-6,2.9e-4 z m -1.520767,-2.07521 c 0.01381,0.3753 0.32621,0.62468 0.651011,0.60121 0.370714,-0.0491 0.508537,-0.39718 0.437026,-0.6015 -0.06929,0.1977 -0.29681,0.31975 -0.437026,0.27237 -0.118316,-0.0219 -0.235288,-0.17671 -0.222703,-0.27229 0,0 1e-5,-8e-5 1e-5,-8e-5 -0.01261,-0.0956 0.104419,-0.25042 0.222693,-0.27222 0,0 0,0 0,0 0.140092,-0.0473 0.367487,0.0747 0.436688,0.27223 0.07159,-0.20409 -0.06602,-0.55218 -0.436688,-0.60135 0,0 0,0 0,0 -0.324771,-0.0235 -0.637312,0.22586 -0.651021,0.60134 0,0 1e-5,2.9e-4 1e-5,2.9e-4 z m 33.752047,3.79568 c 1.50778,1.2243 3.02111,2.35688 4.31257,3.22752 -1.11644,-1.08552 -2.53503,-2.33478 -4.0425,-3.55998 -1.50814,-1.22465 -3.02189,-2.35756 -4.31368,-3.22842 1.11673,1.08579 2.53573,2.33539 4.04361,3.56088 z M 84.129684,149.9752 c -1.507259,1.22493 -2.925865,2.47407 -4.042643,3.55973 1.29124,-0.87033 2.804642,-2.00283 4.312713,-3.22727 1.507659,-1.2252 2.926686,-2.47469 4.043742,-3.56061 -1.291561,0.87054 -2.805386,2.00338 -4.313812,3.22815 z m 36.757996,-22.29604 c 0.0959,-0.71882 0.1305,-1.43793 0.11146,-2.14261 0,0 0,0 0,0 l 0,0 c -0.0272,-1.04469 -0.16204,-2.03139 -0.37213,-2.93539 l 0,0 c -0.0684,-0.29442 -0.1439,-0.57622 -0.22842,-0.8471 l 0,0 c -0.0241,-0.0771 -0.0487,-0.1529 -0.0746,-0.22771 0,0 0,0 0,0 -0.007,-0.0201 -0.014,-0.0401 -0.0212,-0.0601 0,0 0,0 0,0 -0.003,-0.007 -0.005,-0.0149 -0.008,-0.0223 0.002,0.008 0.003,0.0155 0.005,0.0232 0,0 0,0 0,0 0.004,0.0207 0.008,0.0415 0.0118,0.0624 0,0 0,0 0,0 0.0143,0.0777 0.0277,0.15598 0.0406,0.2355 l 0,1e-5 c 0.0453,0.2794 0.084,0.56524 0.11829,0.86327 l 0,0 c 0.10534,0.91468 0.16293,1.88675 0.14585,2.91004 l 0,0 c 0,0 0,0 0,0 -0.0122,0.6878 -0.0615,1.3861 -0.15467,2.08382 -0.30531,2.29377 -1.02725,4.19565 -2.0519,5.76586 1.2484,-1.39001 2.16368,-3.35596 2.47839,-5.70896 z m -37.162521,-0.0569 c -0.09311,-0.69769 -0.142398,-1.39599 -0.154575,-2.08382 0,0 0,0 0,0 l 0,0 c -0.01703,-1.0232 0.04059,-1.99525 0.146003,-2.91 l 0,0 c 0.03435,-0.298 0.073,-0.58384 0.11835,-0.86324 l 0,0 c 0.01291,-0.0795 0.02624,-0.15781 0.04058,-0.23549 0,0 0,0 0,0 0.0039,-0.0209 0.0078,-0.0417 0.01183,-0.0624 0,0 0,0 0,0 0.0015,-0.008 0.0031,-0.0156 0.0046,-0.0232 -0.0028,0.007 -0.0055,0.0149 -0.0082,0.0223 0,0 0,0 0,0 -0.0072,0.0199 -0.01421,0.0399 -0.02117,0.0601 0,0 0,0 0,0 -0.02585,0.0748 -0.05052,0.15062 -0.07459,0.2277 l 0,0 c -0.08454,0.27085 -0.160046,0.55264 -0.228481,0.84707 l 0,0 c -0.210129,0.90389 -0.345052,1.89058 -0.372285,2.93535 l 0,0 c 0,0 0,0 0,0 -0.01907,0.70464 0.01553,1.42376 0.111374,2.14261 0.314557,2.35259 1.229559,4.31871 2.478147,5.70916 -1.024368,-1.57003 -1.746389,-3.47184 -2.051664,-5.76606 z m 18.554611,34.50111 c -3.9e-4,-2.46347 -0.0755,-4.85903 -0.21399,-6.8267 -0.13863,1.96722 -0.21384,4.36282 -0.21433,6.8267 3.5e-4,2.46408 0.0755,4.86033 0.21399,6.82849 0.13866,-1.96771 0.21388,-4.364 0.21433,-6.82849 z m 15.7113,1.4942 c 1.81934,-1.30613 3.57855,-2.64366 5.26876,-4.03717 0,0 0,0 0,0 l 0,0 c 2.63868,-2.16484 4.79781,-4.57375 5.50425,-7.49982 l 0,0 c 0.17374,-0.7214 0.23657,-1.44729 0.14428,-2.14191 l 0,0 c -0.0258,-0.19435 -0.0636,-0.38517 -0.11894,-0.56948 l 0,0 c 0,0 0,0 0,0 -0.0151,-0.0502 -0.0314,-0.0999 -0.0499,-0.14865 0,0 0,0 0,0 -0.007,-0.018 -0.014,-0.0366 -0.0219,-0.054 0.007,0.0178 0.0133,0.0367 0.0192,0.0549 0,0 0,0 0,0 0.016,0.0495 0.0298,0.0998 0.0423,0.15058 0,0 0,0 0,0 l 0,0 c 0.0459,0.18616 0.0741,0.37712 0.0905,0.57087 l 0,0 c 0.0589,0.69234 -0.0354,1.40223 -0.23359,2.1042 l 0,0 c -0.80319,2.85148 -2.97867,5.11718 -5.61578,7.23831 l 0,0 c 0,0 0,0 0,0 -1.70437,1.3642 -3.46224,2.68059 -5.27792,3.98361 -2.66318,1.91173 -5.40425,3.76023 -7.99127,5.50777 0,0 0,0 0,0 -2.77717,1.82441 -5.37459,3.55531 -7.68663,5.1223 0,0 0,0 0,0 0,7e-5 2e-5,1.3e-4 6e-5,1.8e-4 -4e-5,-5e-5 -5e-5,-1.1e-4 -5e-5,-1.8e-4 0,0 0,0 0,0 2.38723,-1.44689 5.04459,-3.08616 7.86329,-4.85068 0,0 1e-5,0 1e-5,0 2.63123,-1.69441 5.38548,-3.50882 8.06341,-5.43084 z m -31.604616,-0.34855 c -1.815577,-1.30298 -3.573467,-2.6194 -5.277894,-3.98368 0,0 0,-1e-5 0,-1e-5 l 0,0 c -2.636752,-2.1209 -4.81246,-4.38667 -5.615612,-7.2383 l 0,0 c -0.198159,-0.70192 -0.292449,-1.41178 -0.233534,-2.1041 l 0,0 c 0.01647,-0.19373 0.04465,-0.38467 0.09053,-0.57081 l 0,0 c 0,0 0,0 0,0 0.01251,-0.0507 0.02631,-0.10104 0.04228,-0.15057 0,0 10e-7,0 10e-7,0 0.0059,-0.0182 0.01212,-0.0371 0.01915,-0.0549 -0.008,0.0175 -0.01512,0.0361 -0.02194,0.054 0,0 0,0 0,0 -0.01849,0.0488 -0.03484,0.0984 -0.0499,0.14863 0,0 0,0 0,0 l 0,0 c -0.0553,0.18428 -0.09311,0.37508 -0.118944,0.56942 l 0,0 c -0.0923,0.69455 -0.0295,1.4204 0.144219,2.14181 l 0,0 c 0.706291,2.92579 2.865118,5.33468 5.504092,7.49982 l 0,0 c 0,0 10e-7,0 10e-7,0 1.69012,1.39347 3.449303,2.73103 5.268727,4.03725 2.677782,1.92196 5.431903,3.73634 8.06337,5.43095 0,0 10e-7,0 10e-7,0 2.81837,1.76437 5.475693,3.40369 7.863235,4.85085 0,0 0,0 0,0 7e-5,-3e-5 1.1e-4,-7e-5 1.4e-4,-1.2e-4 -3e-5,5e-5 -7e-5,9e-5 -1.3e-4,1.1e-4 0,0 0,0 0,0 -2.311684,-1.56683 -4.909106,-3.29779 -7.686574,-5.12245 0,0 -10e-7,0 -10e-7,0 -2.586708,-1.7474 -5.327964,-3.59607 -7.991221,-5.5079 z m 30.015816,-2.48836 c 1.6811,-1.14669 3.30695,-2.32332 4.86956,-3.55272 0,0 1e-5,0 1e-5,0 l 0,0 c 2.36582,-1.85 4.33425,-3.91428 4.98289,-6.48415 l 0,0 c 0.15655,-0.62196 0.21317,-1.25061 0.12866,-1.85055 l 0,0 c -0.0237,-0.16807 -0.0583,-0.33298 -0.10863,-0.49178 l 0,0 c 0,0 0,0 0,0 -0.0138,-0.0435 -0.0287,-0.0864 -0.0456,-0.12859 0,0 0,0 0,0 -0.006,-0.0157 -0.0129,-0.032 -0.0203,-0.0472 0.006,0.0156 0.0121,0.0322 0.0175,0.0481 0,0 0,0 0,0 0.0144,0.0429 0.0268,0.0865 0.0381,0.13058 0,0 0,0 0,0 l 0,0 c 0.0411,0.16068 0.0663,0.32573 0.0809,0.49318 l 0,0 c 0.0519,0.59755 -0.0355,1.20975 -0.21555,1.81189 l 0,0 c -0.74356,2.49355 -2.72393,4.41112 -5.08909,6.21968 l 0,0 c 0,0 0,0 0,0 -1.57724,1.19869 -3.20127,2.35325 -4.87888,3.49708 -2.38146,1.62422 -4.82983,3.19787 -7.13863,4.68747 0,0 0,0 0,0 -2.5157,1.57853 -4.86767,3.07891 -6.95892,4.43924 0,0 0,0 0,0 0,8e-5 1e-5,1.4e-4 5e-5,1.9e-4 -4e-5,-5e-5 -5e-5,-1.1e-4 -4e-5,-1.8e-4 0,0 0,0 0,0 2.16435,-1.23775 4.5745,-2.64471 7.13031,-4.16242 0,0 1e-5,0 1e-5,0 2.35158,-1.43657 4.81118,-2.97573 7.2076,-4.60986 z m -28.435125,-0.35423 c -1.677629,-1.14387 -3.3018,-2.29854 -4.87919,-3.49737 0,0 -10e-7,0 -10e-7,0 l 0,0 c -2.364836,-1.80838 -4.345411,-3.72601 -5.088928,-6.21967 l 0,0 c -0.180005,-0.60209 -0.267415,-1.21427 -0.215488,-1.81178 l 0,0 c 0.01454,-0.16743 0.03972,-0.33247 0.08087,-0.49313 l 0,0 c 0,0 0,0 0,0 0.01128,-0.044 0.02372,-0.0876 0.03813,-0.13056 0,0 0,0 0,0 0.0054,-0.016 0.01107,-0.0326 0.01748,-0.0481 -0.0073,0.0152 -0.01395,0.0315 -0.02024,0.0472 0,0 0,0 0,0 -0.01687,0.0421 -0.03181,0.0851 -0.04559,0.12857 0,0 -10e-7,0 -10e-7,0 l 0,0 c -0.05032,0.15878 -0.08494,0.32367 -0.108631,0.49173 l 0,0 c -0.08452,0.59987 -0.02793,1.22847 0.128597,1.85044 l 0,0 c 0.648496,2.56962 2.616644,4.63388 4.98273,6.48414 l 0,0 c 0,0 10e-7,0 10e-7,0 1.562354,1.22926 3.18796,2.40577 4.868935,3.55243 2.3961,1.63398 4.855442,3.17303 7.207286,4.60981 0,0 10e-7,0 10e-7,0 l 0,0 c 1.752358,1.07066 3.442922,2.06918 5.046234,2.98789 l 0,0 c 0.518818,0.29729 1.024968,0.58419 1.521918,0.86221 l 0,0 c 0.13933,0.078 0.27746,0.15495 0.41499,0.23119 l 0,0 0,0 0,0 c 0.0364,0.0202 0.0728,0.0403 0.10906,0.0604 0,0 0,0 0,0 l 0,0 c 0.0131,0.007 0.0263,0.0139 0.039,0.0213 4e-5,2e-5 5e-5,3e-5 5e-5,3e-5 0,0 -1e-5,-1e-5 -5e-5,-3e-5 -0.0127,-0.007 -0.0254,-0.0154 -0.0377,-0.0235 l 0,0 c 0,0 0,0 0,0 -0.0351,-0.0221 -0.0703,-0.0442 -0.10546,-0.0664 l 0,0 0,0 0,0 c -0.0237,-0.015 -0.37784,-0.23869 -0.40158,-0.25366 l 0,0 c -0.48387,-0.30607 -0.96954,-0.61425 -1.47675,-0.93659 l 0,0 c -1.564868,-0.99454 -3.206604,-2.04244 -4.936555,-3.15853 l 0,0 c 0,0 0,0 0,0 -2.308539,-1.48948 -4.757328,-3.06344 -7.13911,-4.68792 z m 34.946675,-15.0384 c 0.36691,0.27917 0.73815,0.55045 1.11104,0.81452 1.11482,0.78968 2.22582,1.49654 3.28268,2.11157 l 0,0 0,0 c 0.36256,0.21099 0.71478,0.4088 1.05826,0.594 l 0,0 c 0.0998,0.0538 0.19835,0.10627 0.2963,0.15757 0,0 0,0 0,0 0.0264,0.0138 0.0527,0.0276 0.079,0.0412 0,0 1e-5,0 1e-5,0 0.01,0.005 0.0193,0.01 0.0289,0.0149 -0.009,-0.006 -0.0178,-0.0125 -0.0265,-0.0187 0,0 0,0 0,0 -0.004,-0.003 -0.0682,-0.0483 -0.0727,-0.0515 0,0 0,0 0,0 -0.0905,-0.0642 -0.18065,-0.12846 -0.27322,-0.19447 l 0,0 c -0.32526,-0.23197 -0.63735,-0.45525 -0.98543,-0.70464 l 0,0 0,0 c -1.00125,-0.71738 -2.04553,-1.46774 -3.14495,-2.28407 -0.36491,-0.27102 -0.73004,-0.54427 -1.0939,-0.82129 -0.86271,-0.65635 -1.67992,-1.30479 -2.46778,-1.98385 -1.07187,-0.92772 -1.9215,-1.69372 -2.55433,-2.70123 0.48336,1.07558 1.30234,1.98244 2.32227,2.95644 0.75648,0.72514 1.57441,1.41023 2.44037,2.06957 z m -41.52897,-0.34251 c -0.363484,0.27674 -0.728265,0.54974 -1.092918,0.82055 0,0 0,0 0,0 -1.664326,1.13787 -3.21818,2.26044 -4.506207,3.2554 1.412793,-0.80751 3.048972,-1.81394 4.741924,-2.91669 0,0 0,0 0,0 0.373103,-0.2642 0.744626,-0.53566 1.11187,-0.81503 0.866774,-0.65985 1.685705,-1.34558 2.442917,-2.0712 1.019797,-0.97379 1.83893,-1.88068 2.322451,-2.95638 -0.632897,1.00746 -1.482424,1.77334 -2.554512,2.70118 -0.787239,0.67858 -1.603529,1.32635 -2.465525,1.98217 z m 20.77004,-13.84265 c -1.77356,-0.0189 -3.526753,-0.25394 -5.211259,-0.66876 -2.981645,-1.36388 -5.799169,-2.61717 -8.276088,-3.6811 2.400515,1.2261 5.178184,2.59979 8.150214,4.03122 1.707547,0.4581 3.499683,0.71859 5.317893,0.7411 1.13212,0.0138 2.2591,-0.0648 3.36694,-0.2386 4.06015,-0.64378 7.51879,-2.51881 10.08772,-4.53347 -2.69353,1.83699 -6.17289,3.55461 -10.14885,4.13083 -1.08276,0.15877 -2.18184,0.23077 -3.28657,0.21878 z m -0.0395,-2.69666 c -1.83997,-0.0117 -3.656692,-0.13779 -5.434337,-0.36301 -3.15952,-0.75464 -6.137999,-1.43365 -8.749548,-1.99459 2.568265,0.73292 5.52458,1.53633 8.67927,2.35886 1.787541,0.26462 3.624135,0.41157 5.485395,0.42407 5.40424,0.0354 10.21978,-1.0618 14.15949,-2.78264 -4.05662,1.45971 -8.78501,2.39228 -14.14027,2.35731 z m 13.68733,-0.20037 c 0.0371,-0.17689 -0.001,0.005 0.036,-0.17193 0,0 0,0 0,0 0.20056,-0.62839 0.33364,-1.25105 0.38411,-1.7948 -0.29033,0.46247 -0.56651,1.04841 -0.79198,1.67808 0,0 0,0 0,0 -0.0157,0.0598 -0.0304,0.12045 -0.0438,0.18195 -0.0815,0.37586 -0.11016,0.76694 -0.0253,1.13959 0.0828,0.3976 0.39572,0.67922 0.69464,0.67546 -0.26271,-0.12863 -0.37092,-0.4199 -0.38164,-0.71757 -0.009,-0.32221 0.0539,-0.63977 0.12794,-0.99078 z m -26.99605,-0.1067 c -0.0134,-0.0615 -0.0281,-0.12217 -0.04375,-0.18195 0,0 0,0 0,0 -0.22534,-0.6296 -0.501406,-1.21556 -0.79166,-1.67819 0.05032,0.54368 0.183294,1.16638 0.383794,1.7949 0,0 0,0 0,0 0.0071,0.0343 0.02888,0.13762 0.03601,0.17194 0.07395,0.35098 0.136503,0.66857 0.127787,0.99076 -0.01078,0.29756 -0.118954,0.58876 -0.381546,0.71726 0.298722,0.004 0.611674,-0.27756 0.694542,-0.67515 0.08489,-0.37259 0.05631,-0.76367 -0.02517,-1.13957 z m 13.3404,4.29907 c -1.83997,-0.0117 -3.656698,-0.13779 -5.434343,-0.36301 -3.15952,-0.75464 -6.138,-1.43365 -8.74955,-1.99459 2.568265,0.73292 5.524582,1.53633 8.679273,2.35886 1.78754,0.26462 3.62413,0.41157 5.48539,0.42407 5.40425,0.0354 10.21979,-1.0618 14.15949,-2.78264 -4.05661,1.45971 -8.78501,2.39228 -14.14026,2.35731 z m -0.0317,-3.992 c -1.83997,-0.0117 -3.656692,-0.13779 -5.434337,-0.36301 -3.15952,-0.75464 -6.137999,-1.43365 -8.749548,-1.99459 2.568265,0.73292 5.52458,1.53633 8.67927,2.35886 1.787541,0.26462 3.624135,0.41157 5.485395,0.42407 5.40424,0.0354 10.21978,-1.0618 14.15949,-2.78264 -4.05662,1.45971 -8.78501,2.39228 -14.14027,2.35731 z m 5.07036,15.36264 c 0.1451,-2.43307 0.21163,-4.80353 0.18959,-6.75517 -0.25457,1.93465 -0.47114,4.29618 -0.61715,6.72961 -0.14518,2.43367 -0.21175,4.80481 -0.1897,6.75694 0.25463,-1.93513 0.47125,-4.29734 0.61726,-6.73138 z m 3.8081,-1.6519 c 0.19361,-2.22292 0.30745,-4.39106 0.32442,-6.17861 -0.29302,1.76305 -0.5566,3.91815 -0.75112,6.14137 -0.19369,2.22346 -0.30758,4.39222 -0.32456,6.18022 0.29309,-1.76349 0.55673,-3.91921 0.75126,-6.14298 z m 3.51719,-2.41845 c 0.16935,-1.85109 0.25964,-3.65797 0.2573,-5.14913 -0.2736,1.46551 -0.51358,3.2587 -0.68384,5.11002 -0.16944,1.85155 -0.25977,3.65895 -0.25743,5.15049 0.27367,-1.46588 0.51369,-3.25959 0.68397,-5.11138 z m -16.892698,4.04479 c -0.145892,-2.43303 -0.362339,-4.79452 -0.616814,-6.72963 -0.02219,1.9512 0.04422,4.32171 0.189248,6.75519 0.145893,2.43364 0.362382,4.79581 0.616921,6.7314 0.0222,-1.95169 -0.04425,-4.32288 -0.189355,-6.75696 z m -3.808943,-1.66358 c -0.194391,-2.22285 -0.45785,-4.37793 -0.750786,-6.14139 0.01681,1.78715 0.130539,3.95533 0.324078,6.17863 0.194403,2.2234 0.457918,4.3791 0.750927,6.14301 -0.01682,-1.7876 -0.130596,-3.9564 -0.324219,-6.18025 z m -3.517335,-2.42032 c -0.170141,-1.85102 -0.409988,-3.64419 -0.683501,-5.11006 -0.0025,1.49084 0.08768,3.29776 0.256961,5.14917 0.170147,1.85149 0.410044,3.64518 0.683625,5.11141 0.0025,-1.49121 -0.08772,-3.29865 -0.257085,-5.15052 z m 14.321966,5.20646 c -0.27908,3.09223 -0.47606,6.10594 -0.56134,8.58826 0.36124,-2.45681 0.70792,-5.45704 0.98793,-8.5497 0.27918,-3.09299 0.47624,-6.10757 0.56154,-8.59051 -0.36133,2.45742 -0.70809,5.45852 -0.98813,8.55195 z m -5.332116,0.0335 c 0.206161,3.09217 0.481182,6.09413 0.783736,8.55479 -0.026,-2.47849 -0.151043,-5.49049 -0.356352,-8.58323 -0.206175,-3.09293 -0.481256,-6.09576 -0.783887,-8.55704 0.026,2.47911 0.151107,5.49198 0.356503,8.58548 z m 12.106926,-11.2026 c 2.2874,-0.82688 4.4869,-1.69971 6.268,-2.48734 -1.87282,0.53246 -4.12234,1.26699 -6.41042,2.09319 -2.28798,0.82705 -4.48812,1.70012 -6.26966,2.48795 1.87328,-0.53259 4.12344,-1.26735 6.41208,-2.0938 z m -18.785763,0.74586 c -0.860885,-0.30915 -1.690254,-0.66457 -2.486724,-1.06072 0,0 0,0 0,0 l 0,0 c -0.939293,-0.46731 -1.791202,-0.96498 -2.572218,-1.4908 l 0,0 c -0.241699,-0.16272 -0.471223,-0.32439 -0.692043,-0.49052 l 0,0 c -0.06148,-0.0463 -0.121769,-0.0925 -0.181038,-0.13943 0,0 0,0 0,0 -0.01581,-0.0125 -0.03151,-0.0251 -0.04709,-0.0377 0,0 0,0 0,0 -0.0058,-0.005 -0.01168,-0.01 -0.01741,-0.0143 0.005,0.006 0.01019,0.0111 0.01529,0.0166 0,0 10e-7,0 10e-7,0 0.01371,0.0147 0.02757,0.0294 0.04156,0.044 0,0 0,0 0,0 0.05242,0.0547 0.10623,0.10872 0.161334,0.16269 l 0,0 c 0.197957,0.19384 0.409016,0.38349 0.633589,0.57246 l 0,0 c 0.725037,0.61012 1.555482,1.18312 2.487408,1.70107 l 0,0 c 0,0 0,0 0,0 0.791925,0.44022 1.63305,0.82367 2.512492,1.13983 2.42017,0.86913 4.795991,1.1116 6.82823,0.94513 -2.048094,-0.11818 -4.305278,-0.49332 -6.68339,-1.34826 z m 25.565383,-2.55377 c 0.10381,-0.79843 0.21453,-1.59375 0.32876,-2.38527 0,0 0,0 0,0 l 0,0 c 0.34225,-2.37072 0.71096,-4.62043 1.074,-6.73909 l 0,0 0,0 0,0 c 0.12434,-0.72567 0.24403,-1.41215 0.36432,-2.08702 l 0,0 c 0.0347,-0.19444 0.0688,-0.38492 0.10335,-0.57452 l 0,0 c 0,0 0,0 0,0 0.009,-0.0507 0.0184,-0.10105 0.0277,-0.15135 0,0 0,-1e-5 0,-1e-5 -5.1e-4,0.003 0.008,-0.0421 0.007,-0.0394 -1.1e-4,5.6e-4 0.003,-0.0149 0.003,-0.0143 -5.3e-4,0.002 -0.003,0.0121 -0.004,0.014 -4e-4,0.001 -0.01,0.0372 -0.0103,0.0387 0,0 0,0 0,0 -0.0132,0.0494 -0.0263,0.099 -0.0394,0.14878 0,0 0,0 0,0 l 0,0 c -0.0489,0.1861 -0.0973,0.37425 -0.1457,0.5655 l 0,0 c -0.16731,0.66115 -0.33158,1.34701 -0.49434,2.06204 l 0,0 0,0 0,0 c -0.47554,2.08913 -0.92146,4.35011 -1.29384,6.71503 l 0,0 c 0,0 0,0 0,0 -0.12474,0.79197 -0.24113,1.58991 -0.3455,2.39158 -0.24606,1.89269 -0.41793,3.75072 -0.4861,5.58502 -0.0939,2.46684 -0.062,4.56229 0.53358,6.54003 -0.44011,-2.03094 -0.35419,-4.04723 -0.18947,-6.52205 0.12327,-1.82544 0.32071,-3.65769 0.56682,-5.54773 z m -31.675526,0.2291 c -0.04332,-0.29228 -0.08783,-0.58417 -0.133208,-0.87558 -0.41254,-2.65097 -0.917338,-5.21452 -1.449246,-7.57936 l 0,0 0,0 0,0 c -0.190872,-0.84863 -0.383085,-1.66083 -0.577085,-2.43886 l 0,0 c -0.05744,-0.23037 -0.114733,-0.45651 -0.172426,-0.67967 l 0,0 c 0,0 0,0 0,0 -0.01557,-0.0602 -0.03114,-0.12014 -0.04679,-0.17982 0,0 -10e-7,0 -10e-7,0 5.68e-4,0.002 -0.01286,-0.0489 -0.01229,-0.0468 0.0098,0.0371 -0.01422,-0.0539 -0.0044,-0.0168 -6.3e-5,-3.5e-4 0.0031,0.0174 0.0031,0.0171 4.54e-4,0.003 0.0081,0.0451 0.0085,0.0476 0,0 0,0 0,0 0.002,0.011 0.03063,0.1719 0.0326,0.1829 0,0 0,0 0,0 l 0,0 c 0.0083,0.0466 0.113522,0.64375 0.121792,0.69031 l 0,0 c 0.140372,0.79931 0.279914,1.60099 0.429367,2.46724 l 0,0 0,1e-5 0,0 c 0.413743,2.39816 0.845497,4.94357 1.245703,7.60063 0.04381,0.29108 0.08741,0.58237 0.130517,0.87384 0.367694,2.48302 0.669253,4.79165 0.796497,7.12758 0,0 0,0 0,0 0.05692,1.05297 0.08158,2.0236 -0.02926,2.98714 -0.07929,0.64809 -0.15831,1.28213 -0.588449,1.70784 0.462711,-0.3901 0.607829,-1.04437 0.718393,-1.68876 0.172504,-0.96583 0.199871,-1.95733 0.184915,-3.01594 0,0 0,0 0,0 -0.03219,-2.34108 -0.291907,-4.70577 -0.658226,-7.18062 z m 15.634686,22.34924 c -0.11694,0.004 -0.23427,0.007 -0.35199,0.007 -2.280123,0.0179 -4.498999,-0.83312 -6.380908,-2.04785 -1.796909,-1.16145 -3.360451,-2.65775 -4.747066,-4.09248 -1.331517,-1.23821 -2.601822,-2.40936 -3.793052,-3.49698 1.133808,1.1471 2.352887,2.36863 3.640303,3.6476 1.343345,1.48658 2.881382,3.03171 4.696904,4.2499 1.906493,1.28082 4.19428,2.17672 6.586259,2.16794 0.12261,-0.001 0.24476,-0.004 0.36647,-0.01 5.10682,-0.22069 9.34112,-4.03178 12.38315,-7.22222 1.0186,-1.06552 2.1254,-1.9873 2.93198,-3.05518 -0.86017,1.02507 -1.99453,1.88661 -3.06197,2.92638 -3.15162,3.06053 -7.39623,6.74936 -12.27008,6.92574 z m 0.21895,-31.28185 c -2.51292,0.0484 -4.987708,-0.14287 -7.3966,-0.57158 -3.765716,-1.29661 -7.313515,-2.48726 -10.440165,-3.5036 3.069526,1.17669 6.587659,2.48688 10.346297,3.85337 2.425474,0.47395 4.931598,0.68962 7.475888,0.64215 6.87442,-0.12911 13.0503,-2.14316 17.85231,-4.7487 -4.93054,2.35354 -11.05125,4.19847 -17.83773,4.32836 z"
       inkscape:connector-curvature="0"
       transform="matrix(0.60817556,0,0,0.60817556,-15.474357,-26.688319)"
       inkscape:export-xdpi="96"
       inkscape:export-ydpi="96" />
    <path
       id="path1053"
       style="opacity:1;fill:none;fill-opacity:1;stroke:#ffffff;stroke-width:0.52916664;stroke-linecap:round;stroke-linejoin:miter;stroke-miterlimit:4;stroke-dasharray:none;stroke-dashoffset:0;stroke-opacity:1"
       d="m 28.433383,89.149451 a 46.037502,46.037502 0 0 1 -0.288051,-0.12495 m 0,0 a 46.037502,46.037502 0 0 1 -2.414008,-1.14073 m 0,0 a 46.037502,46.037502 0 0 1 -2.293412,-1.46119 m -2.711851,-1.49593 a 46.037502,46.037502 0 0 1 -2.779718,-2.04509 m 0,0 a 46.037502,46.037502 0 0 1 -2.051228,-1.73101 m 0,0 a 46.037502,46.037502 0 0 1 -2.214102,-2.11871 m 0,0 a 46.037502,46.037502 0 0 1 -1.795139,-1.94489 m 0,0 a 46.037502,46.037502 0 0 1 -1.9244245,-2.36267 m 0,0 a 46.037502,46.037502 0 0 1 -1.546544,-2.15911 m 0,0 a 46.037502,46.037502 0 0 1 -1.635843,-2.61364 m 0,0 a 46.037502,46.037502 0 0 1 -1.285427,-2.37309 m -1.355462,-2.94051 a 46.037502,46.037502 0 0 1 -1.008044,-2.62857 m -0.974817,-3.15425 a 46.037502,46.037502 0 0 1 -0.685246,-2.907949 m 0,0 a 46.037502,46.037502 0 0 1 -0.467249,-2.742657 m 0,0 a 46.037502,46.037502 0 0 1 -0.307106,-2.848222 m 0,0 a 46.037502,46.037502 0 0 1 -0.13295,-3.211081 m 0,0 a 46.037502,46.037502 0 0 1 0.06308,-2.724939 m 0,0 a 46.037502,46.037502 0 0 1 0.268477,-3.095977 m 0,0 a 46.037502,46.037502 0 0 1 0.396702,-2.63836 m 0,0 a 46.037502,46.037502 0 0 1 0.640405,-2.984369 m 0,0 a 46.037502,46.037502 0 0 1 0.714607,-2.549373 m 0,0 a 46.037502,46.037502 0 0 1 0.306536,-0.947655 46.037502,46.037502 0 0 1 0.721728,-1.997216 m 0,0 a 46.037502,46.037502 0 0 1 1.033356,-2.45277 m 1.38135,-2.778653 a 46.037502,46.037502 0 0 1 1.369077,-2.365075 m 10e-6,1e-6 a 46.037502,46.037502 0 0 1 0.771722,-1.204102 m 0,0 a 46.037502,46.037502 0 0 1 1.9543075,-2.420086 m 1.595607,-2.256381 a 46.037502,46.037502 0 0 1 1.814435,-1.978107 m 0,0 a 46.037502,46.037502 0 0 1 2.202657,-2.119531 m 0,0 a 46.037502,46.037502 0 0 1 2.019644,-1.715592 m 0,0 a 46.037502,46.037502 0 0 1 2.438415,-1.824292 m 0,0 a 46.037502,46.037502 0 0 1 2.226136,-1.459506 m 0,0 A 46.037502,46.037502 0 0 1 25.22118,6.074622 M 27.652632,4.88948 a 46.037502,46.037502 0 0 1 2.945161,-1.209135 m 0,0 A 46.037502,46.037502 0 0 1 33.266036,2.78305 m 0,0 a 46.037502,46.037502 0 0 1 1.335038,-0.38208 m 0,0 A 46.037502,46.037502 0 0 1 37.180206,1.783853 M 40.21227,1.255204 a 46.037502,46.037502 0 0 1 2.67608,-0.29539898 m 0,0 a 46.037502,46.037502 0 0 1 2.18866,-0.124633 m -1e-5,-2e-6 a 46.037502,46.037502 0 0 1 2.78915,-0.0077 m 0,0 A 46.037502,46.037502 0 0 1 51.0113,1.021933 m 0,0 a 46.037502,46.037502 0 0 1 2.68943,0.339151 m 0,0 a 46.037502,46.037502 0 0 1 3.07671,0.588199 m 0,0 a 46.037502,46.037502 0 0 1 2.57339,0.661997 m 0,0 a 46.037502,46.037502 0 0 1 1.89142,0.589584 46.037502,46.037502 0 0 1 1.00545,0.350293 m 0,0 a 46.037502,46.037502 0 0 1 2.46514,0.972052 m 0,0 a 46.037502,46.037502 0 0 1 2.77971,1.300907 m 2.35324,1.286165 a 46.037502,46.037502 0 0 1 2.65525,1.67745 m 0,0 a 46.037502,46.037502 0 0 1 2.24732,1.630707 m 0,0 a 46.037502,46.037502 0 0 1 1.98557,1.624605 m 0,0 a 46.037502,46.037502 0 0 1 1.9964,1.834119 m 0,0 a 46.037502,46.037502 0 0 1 2.14149,2.232078 m 0,0 a 46.037502,46.037502 0 0 1 1.71759,2.030097 m 0,0 a 46.037502,46.037502 0 0 1 1.85919,2.499822 m 1.44361,2.218472 a 46.037502,46.037502 0 0 1 1.50637,2.662284 m 1.17066,2.407448 a 46.037502,46.037502 0 0 1 1.18047,2.873644 m 0,0 a 46.037502,46.037502 0 0 1 0.88446,2.615998 m 0,0 a 46.037502,46.037502 0 0 1 0.83169,3.11352 m 0,0 a 46.037502,46.037502 0 0 1 0.55667,2.821719 m 0,0 a 46.037502,46.037502 0 0 1 0.31997,2.298321 m 0.23598,2.880916 a 46.037502,46.037502 0 0 1 0.0497,3.205033 m 0,0 a 46.037502,46.037502 0 0 1 -0.35076,3.094457 m -1.32225,8.34565 a 46.037502,46.037502 0 0 1 -0.70919,2.31389 46.037502,46.037502 0 0 1 -0.0726,0.21477 m 0,0 a 46.037502,46.037502 0 0 1 -1.10446,2.9126 m 0,0 a 46.037502,46.037502 0 0 1 -1.09962,2.42808 m -1.43078,2.32927 a 46.037502,46.037502 0 0 1 -1.44396,2.72243 m 0,0 a 46.037502,46.037502 0 0 1 -1.94645,2.74338 m 0,0 a 46.037502,46.037502 0 0 1 -2.13733,2.58921 m 0,0 a 46.037502,46.037502 0 0 1 -2.49968,2.59996 m 0,0 a 46.037502,46.037502 0 0 1 -2.23727,2.01497 m -2.65156,2.07449 a 46.037502,46.037502 0 0 1 -2.34496,1.59236 m -2.74382,1.61197 a 46.037502,46.037502 0 0 1 -2.44066,1.23031 m 0,0 a 46.037502,46.037502 0 0 1 -2.90061,1.23654 m 0,0 a 46.037502,46.037502 0 0 1 -2.51211,0.88799 m 0,0 a 46.037502,46.037502 0 0 1 -2.93276,0.83607 m -2.58662,0.56707 a 46.037502,46.037502 0 0 1 -4.14232,0.59049 m 0,0 a 46.037502,46.037502 0 0 1 -2.86897,0.18648 m 0,0 a 46.037502,46.037502 0 0 1 -3.20698,-0.004 m 0,0 a 46.037502,46.037502 0 0 1 -2.72774,-0.17945 m 0,0 a 46.037502,46.037502 0 0 1 -3.085044,-0.40075 m 0,0 a 46.037502,46.037502 0 0 1 -2.617124,-0.50857 m 0,0 a 46.037502,46.037502 0 0 1 -2.956713,-0.76781 m 0,0 a 46.037502,46.037502 0 0 1 -1.599507,-0.50433 v 0 a 46.037502,46.037502 0 0 1 -0.916525,-0.31825 m 0,0 a 46.037502,46.037502 0 0 1 -0.142577,-0.051"
       inkscape:connector-curvature="0"
       inkscape:export-xdpi="96"
       inkscape:export-ydpi="96" />
    <path
       d="m 62.26912,88.021141 a 44.053129,44.053129 0 0 1 -0.28116,0.10593 m 0,0 a 44.053129,44.053129 0 0 1 -2.41879,0.82271 m 0,0 a 44.053129,44.053129 0 0 1 -2.5492,0.52214 M 54.16,90.248711 a 44.053129,44.053129 0 0 1 -3.27218,0.44445 m 0,0 a 44.053129,44.053129 0 0 1 -2.56233,0.17544 m 0,0 a 44.053129,44.053129 0 0 1 -2.93236,0.0173 m 0,0 a 44.053129,44.053129 0 0 1 -2.52865,-0.14205 m 0,0 a 44.053129,44.053129 0 0 1 -2.895619,-0.3432 m 0,0 a 44.053129,44.053129 0 0 1 -2.500353,-0.45478 m 0,0 a 44.053129,44.053129 0 0 1 -2.864298,-0.70781 m 0,0 a 44.053129,44.053129 0 0 1 -2.46329,-0.7757 m -2.889137,-1.11913 a 44.053129,44.053129 0 0 1 -2.442674,-1.13601 m -2.769737,-1.51944 a 44.053129,44.053129 0 0 1 -2.406726,-1.5429 m 0,0 a 44.053129,44.053129 0 0 1 -2.146848,-1.57436 m 0,0 a 44.053129,44.053129 0 0 1 -2.107028,-1.75354 m 0,0 a 44.053129,44.053129 0 0 1 -2.22884,-2.1189 m 0,0 a 44.053129,44.053129 0 0 1 -1.770499,-1.9152 m 0,0 a 44.053129,44.053129 0 0 1 -1.876269,-2.30699 m 0,0 a 44.053129,44.053129 0 0 1 -1.483517,-2.07777 m 0,0 a 44.053129,44.053129 0 0 1 -1.5463065,-2.47782 m 0,0 a 44.053129,44.053129 0 0 1 -1.205741,-2.22821 m 0,0 a 44.053129,44.053129 0 0 1 -0.420054,-0.85551 44.053129,44.053129 0 0 1 -0.833293,-1.85337 m 0,0 a 44.053129,44.053129 0 0 1 -0.922327,-2.37396 m -0.900014,-2.82958 a 44.053129,44.053129 0 0 1 -0.633157,-2.537155 m -1e-6,-2e-6 a 44.053129,44.053129 0 0 1 -0.270995,-1.341438 m 0,0 a 44.053129,44.053129 0 0 1 -0.267477,-2.964523 m -0.405082,-2.613224 a 44.053129,44.053129 0 0 1 -0.06942,-2.56759 m 9e-6,-5e-6 a 44.053129,44.053129 0 0 1 0.103311,-2.923225 m 0,0 a 44.053129,44.053129 0 0 1 0.24639,-2.523728 m 0,0 a 44.053129,44.053129 0 0 1 0.461874,-2.877199 m 0,0 a 44.053129,44.053129 0 0 1 0.558801,-2.485135 m 0,0 a 44.053129,44.053129 0 0 1 0.846211,-2.895422 m 0.882566,-2.433194 a 44.053129,44.053129 0 0 1 1.219738,-2.791639 m 0,0 a 44.053129,44.053129 0 0 1 1.236961,-2.392944 m 0,0 a 44.053129,44.053129 0 0 1 0.663415,-1.151319 m 0,0 a 44.053129,44.053129 0 0 1 1.3622015,-2.141023 m 1.732444,-2.381697 a 44.053129,44.053129 0 0 1 1.642998,-1.9844 m 0,0 a 44.053129,44.053129 0 0 1 1.421589,-1.542548 m -9e-6,4e-6 a 44.053129,44.053129 0 0 1 1.912199,-1.861913 m 0,0 a 44.053129,44.053129 0 0 1 2.291518,-1.959881 m 0,0 a 44.053129,44.053129 0 0 1 2.074536,-1.557104 m 0,0 a 44.053129,44.053129 0 0 1 2.506564,-1.64366 m 0,0 a 44.053129,44.053129 0 0 1 2.209684,-1.25789 m 0,0 a 44.053129,44.053129 0 0 1 1.692679,-0.853718 44.053129,44.053129 0 0 1 0.924357,-0.428478 m 0,0 a 44.053129,44.053129 0 0 1 2.341661,-0.972694 m 0,0 A 44.053129,44.053129 0 0 1 33.654287,4.740903 M 36.128111,4.058625 A 44.053129,44.053129 0 0 1 39.07001,3.444297 m 0,0 a 44.053129,44.053129 0 0 1 2.63035,-0.374926 m 0,0 a 44.053129,44.053129 0 0 1 2.44637,-0.204884 m 0,0 A 44.053129,44.053129 0 0 1 46.74,2.796417 m 0,0 a 44.053129,44.053129 0 0 1 2.9579,0.108922 m 0,0 a 44.053129,44.053129 0 0 1 2.53206,0.252246 m 0,0 a 44.053129,44.053129 0 0 1 2.94207,0.48089 m 2.46911,0.564111 a 44.053129,44.053129 0 0 1 2.80767,0.827431 m 2.40726,0.875712 a 44.053129,44.053129 0 0 1 2.72433,1.189663 m 0,0 a 44.053129,44.053129 0 0 1 2.34935,1.209579 m 0,0 a 44.053129,44.053129 0 0 1 2.64424,1.586723 m 0,0 a 44.053129,44.053129 0 0 1 2.26094,1.569197 m 0,0 a 44.053129,44.053129 0 0 1 1.74984,1.36695 m 2.07989,1.823357 a 44.053129,44.053129 0 0 1 2.1676,2.170154 m 0,0 a 44.053129,44.053129 0 0 1 1.81869,2.360715 m 4.64631,6.61723 a 44.053129,44.053129 0 0 1 1.05272,2.062717 44.053129,44.053129 0 0 1 0.0931,0.195973 m 0,0 a 44.053129,44.053129 0 0 1 1.17952,2.737409 m 0,0 a 44.053129,44.053129 0 0 1 0.86034,2.4011 m 0.56692,2.553612 a 44.053129,44.053129 0 0 1 0.81954,2.832653 m 0,0 a 44.053129,44.053129 0 0 1 0.48809,3.181533 m 1e-5,9e-6 a 44.053129,44.053129 0 0 1 0.25422,3.20261 m 0,0 a 44.053129,44.053129 0 0 1 0.0123,3.451211 m 0,0 a 44.053129,44.053129 0 0 1 -0.1967,2.874392 m -0.44189,3.191077 a 44.053129,44.053129 0 0 1 -0.55205,2.655562 m -0.81319,2.934536 a 44.053129,44.053129 0 0 1 -0.85883,2.47039 m 0,0 a 44.053129,44.053129 0 0 1 -1.17088,2.78081 m 0,0 a 44.053129,44.053129 0 0 1 -1.13581,2.28262 m 0,0 a 44.053129,44.053129 0 0 1 -1.45956,2.52692 m -1.40065,2.11161 a 44.053129,44.053129 0 0 1 -2.45451,3.16324 m 0,0 a 44.053129,44.053129 0 0 1 -1.84809,2.03791 m 0,0 a 44.053129,44.053129 0 0 1 -2.20705,2.13218 m 0,0 a 44.053129,44.053129 0 0 1 -1.99459,1.69236 m 0,0 a 44.053129,44.053129 0 0 1 -2.38752,1.77806 m 0,0 a 44.053129,44.053129 0 0 1 -2.13763,1.39248 m 0,0 a 44.053129,44.053129 0 0 1 -2.54363,1.44031 m 0,0 a 44.053129,44.053129 0 0 1 -1.4353,0.71794 v 0 a 44.053129,44.053129 0 0 1 -0.842,0.3911 m 0,0 a 44.053129,44.053129 0 0 1 -0.13203,0.0597"
       style="opacity:1;fill:none;fill-opacity:1;stroke:#ffffff;stroke-width:0.5291667;stroke-linecap:round;stroke-linejoin:miter;stroke-miterlimit:4;stroke-dasharray:none;stroke-dashoffset:0;stroke-opacity:1"
       id="path1110"
       inkscape:connector-curvature="0"
       inkscape:export-xdpi="96"
       inkscape:export-ydpi="96" />
    <path
       inkscape:connector-curvature="0"
       id="path1112"
       style="opacity:1;fill:none;fill-opacity:1;stroke:#ffffff;stroke-width:0.5291667;stroke-linecap:round;stroke-linejoin:miter;stroke-miterlimit:4;stroke-dasharray:none;stroke-dashoffset:0;stroke-opacity:1"
       d="m 84.06056,27.707862 a 42.068769,42.068769 0 0 1 0.12964,0.255965 m 0,0 a 42.068769,42.068769 0 0 1 1.03159,2.210975 m 0,0 a 42.068769,42.068769 0 0 1 0.75977,2.365924 m 1.0337,2.634557 a 42.068769,42.068769 0 0 1 0.76091,3.060306 m 0,0 a 42.068769,42.068769 0 0 1 0.43199,2.414281 m 0,0 a 42.068769,42.068769 0 0 1 0.32025,2.781956 m 0,0 a 42.068769,42.068769 0 0 1 0.12711,2.415221 m 0,0 a 42.068769,42.068769 0 0 1 -0.0258,2.784409 m 0,0 a 42.068769,42.068769 0 0 1 -0.17271,2.420747 m 0,0 a 42.068769,42.068769 0 0 1 -0.37521,2.79246 m 0,0 a 42.068769,42.068769 0 0 1 -0.4812,2.418812 m -0.76311,2.858656 a 42.068769,42.068769 0 0 1 -0.82538,2.43656 m -1.15551,2.78677 a 42.068769,42.068769 0 0 1 -1.21538,2.44459 m 0,0 a 42.068769,42.068769 0 0 1 -1.27217,2.20114 m 0,0 a 42.068769,42.068769 0 0 1 -1.44639,2.18191 m 0,0 a 42.068769,42.068769 0 0 1 -1.78062,2.33538 m 0,0 a 42.068769,42.068769 0 0 1 -1.63471,1.87918 m 0,0 a 42.068769,42.068769 0 0 1 -1.9957,2.02017 m 0,0 a 42.068769,42.068769 0 0 1 -1.81879,1.62358 m 0,0 a 42.068769,42.068769 0 0 1 -2.19206,1.72463 m 0,0 a 42.068769,42.068769 0 0 1 -1.99037,1.37546 m 0,0 a 42.068769,42.068769 0 0 1 -0.76855,0.48753 42.068769,42.068769 0 0 1 -1.67312,0.98305 m 0,0 a 42.068769,42.068769 0 0 1 -2.1581,1.12151 m -2.59298,1.14755 a 42.068769,42.068769 0 0 1 -2.34298,0.8639 m 0,0 a 42.068769,42.068769 0 0 1 -1.24538,0.39623 m 0,0 a 42.068769,42.068769 0 0 1 -2.78657,0.56103 m -2.43882,0.65527 a 42.068769,42.068769 0 0 1 -2.43027,0.3319 m -10e-6,-1e-5 a 42.068769,42.068769 0 0 1 -2.78578,0.20475 m 0,0 a 42.068769,42.068769 0 0 1 -2.42135,0.0275 m 0,0 a 42.068769,42.068769 0 0 1 -2.77922,-0.14039 m 0,0 a 42.068769,42.068769 0 0 1 -2.417083,-0.27304 m 0,0 a 42.068769,42.068769 0 0 1 -2.836343,-0.50337 m -2.40131,-0.58577 a 42.068769,42.068769 0 0 1 -2.776514,-0.86872 m 0,0 a 42.068769,42.068769 0 0 1 -2.399851,-0.92653 m 0,0 a 42.068769,42.068769 0 0 1 -1.161696,-0.51052 m 0,0 a 42.068769,42.068769 0 0 1 -2.173629,-1.07136 m -2.440469,-1.39792 a 42.068769,42.068769 0 0 1 -2.054035,-1.35415 m 0,0 a 42.068769,42.068769 0 0 1 -1.611641,-1.18974 m 5e-6,1e-5 a 42.068769,42.068769 0 0 1 -1.965646,-1.62241 m 0,0 a 42.068769,42.068769 0 0 1 -2.097949,-1.97236 m 0,0 a 42.068769,42.068769 0 0 1 -1.693098,-1.80808 m 0,0 a 42.068769,42.068769 0 0 1 -1.820029,-2.20926 m 0,0 a 42.068769,42.068769 0 0 1 -1.423053,-1.96738 m 0,0 a 42.068769,42.068769 0 0 1 -0.985802,-1.51846 42.068769,42.068769 0 0 1 -0.502522,-0.83312 m 0,0 a 42.068769,42.068769 0 0 1 -1.1659825,-2.12222 m 0,0 a 42.068769,42.068769 0 0 1 -1.195237,-2.53704 m -0.903976,-2.27777 a 42.068769,42.068769 0 0 1 -0.887961,-2.72916 m 0,0 a 42.068769,42.068769 0 0 1 -0.628415,-2.458205 m 0,0 a 42.068769,42.068769 0 0 1 -0.447973,-2.301115 m 0,0 a 42.068769,42.068769 0 0 1 -0.333268,-2.454789 m 0,0 a 42.068769,42.068769 0 0 1 -0.203023,-2.819283 m 0,0 a 42.068769,42.068769 0 0 1 -0.02285,-2.42986 m 0,0 a 42.068769,42.068769 0 0 1 0.151733,-2.842785 m 0.279734,-2.402417 a 42.068769,42.068769 0 0 1 0.494635,-2.751094 m 0.581949,-2.37598 a 42.068769,42.068769 0 0 1 0.847143,-2.709502 m 0,0 a 42.068769,42.068769 0 0 1 0.904897,-2.355585 m 0,0 a 42.068769,42.068769 0 0 1 1.232376,-2.674605 m 0,0 A 42.068769,42.068769 0 0 1 10.285844,25.60881 m 0,0 a 42.068769,42.068769 0 0 1 1.116397,-1.802762 m 1.515481,-2.16338 a 42.068769,42.068769 0 0 1 1.835617,-2.28256 m 0,0 a 42.068769,42.068769 0 0 1 2.052663,-1.971078 m 5.800524,-5.09634 a 42.068769,42.068769 0 0 1 1.849128,-1.213062 42.068769,42.068769 0 0 1 0.176404,-0.108635 m 0,0 a 42.068769,42.068769 0 0 1 2.476478,-1.403325 m 0,0 a 42.068769,42.068769 0 0 1 2.190283,-1.065476 m 2.365464,-0.802724 a 42.068769,42.068769 0 0 1 2.604199,-1.071466 m 0,0 A 42.068769,42.068769 0 0 1 37.238203,5.83506 m 8e-6,-5e-6 a 42.068769,42.068769 0 0 1 3.013972,-0.57312 m 0,0 A 42.068769,42.068769 0 0 1 43.52721,4.892738 m 0,0 a 42.068769,42.068769 0 0 1 2.7491,-0.111043 m 3.07513,0.08892 a 42.068769,42.068769 0 0 1 2.57816,0.24897 m 2.87005,0.467968 a 42.068769,42.068769 0 0 1 2.43416,0.559391 m 0,0 a 42.068769,42.068769 0 0 1 2.76118,0.823455 m 0,0 a 42.068769,42.068769 0 0 1 2.2846,0.841776 m 0,0 a 42.068769,42.068769 0 0 1 2.55006,1.123809 m 2.14969,1.110915 a 42.068769,42.068769 0 0 1 3.2572,2.002417 m 0,0 a 42.068769,42.068769 0 0 1 2.12609,1.543309 m 0,0 a 42.068769,42.068769 0 0 1 2.25275,1.874322 m 0,0 a 42.068769,42.068769 0 0 1 1.81322,1.71818 m 0,0 a 42.068769,42.068769 0 0 1 1.93529,2.082318 m 0,0 a 42.068769,42.068769 0 0 1 1.54336,1.885037 m 0,0 a 42.068769,42.068769 0 0 1 1.63082,2.265511 m 0,0 a 42.068769,42.068769 0 0 1 0.83025,1.288176 v 0 a 42.068769,42.068769 0 0 1 0.45812,0.759043 m 0,0 a 42.068769,42.068769 0 0 1 0.0703,0.119224"
       inkscape:export-xdpi="96"
       inkscape:export-ydpi="96" />
    <path
       inkscape:connector-curvature="0"
       id="path1116"
       style="opacity:1;fill:none;fill-opacity:1;stroke:#ffffff;stroke-width:0.5291667;stroke-linecap:round;stroke-linejoin:miter;stroke-miterlimit:4;stroke-dasharray:none;stroke-dashoffset:0;stroke-opacity:1"
       d="m 69.47097,79.767641 a 40.084367,40.084367 0 0 1 -0.22504,0.15523 m 0,0 a 40.084367,40.084367 0 0 1 -1.95539,1.25724 m 0,0 a 40.084367,40.084367 0 0 1 -2.13653,1.02045 m -2.35507,1.3135 a 40.084367,40.084367 0 0 1 -2.79199,1.11048 m 0,0 a 40.084367,40.084367 0 0 1 -2.22418,0.71716 m 0,0 a 40.084367,40.084367 0 0 1 -2.58563,0.65876 m 0,0 a 40.084367,40.084367 0 0 1 -2.26412,0.42942 m 0,0 a 40.084367,40.084367 0 0 1 -2.63229,0.33231 m 0,0 a 40.084367,40.084367 0 0 1 -2.30774,0.14704 m 0,0 a 40.084367,40.084367 0 0 1 -2.68464,0.003 m 0,0 a 40.084367,40.084367 0 0 1 -2.34544,-0.14449 m -2.796844,-0.35429 a 40.084367,40.084367 0 0 1 -2.406287,-0.46717 m -2.77923,-0.73401 a 40.084367,40.084367 0 0 1 -2.463832,-0.83436 m 0,0 a 40.084367,40.084367 0 0 1 -2.241239,-0.91918 m 0,0 a 40.084367,40.084367 0 0 1 -2.245399,-1.08613 m 0,0 a 40.084367,40.084367 0 0 1 -2.433139,-1.38205 m 0,0 a 40.084367,40.084367 0 0 1 -1.983681,-1.30272 m 0,0 a 40.084367,40.084367 0 0 1 -2.163069,-1.6255 m 0,0 a 40.084367,40.084367 0 0 1 -1.765954,-1.50927 m 0,0 a 40.084367,40.084367 0 0 1 -1.909167,-1.84877 m 0,0 a 40.084367,40.084367 0 0 1 -1.553666,-1.70304 m 0,0 a 40.084367,40.084367 0 0 1 -0.559138,-0.6629 40.084367,40.084367 0 0 1 -1.142497,-1.45379 m 0,0 a 40.084367,40.084367 0 0 1 -1.335374,-1.89396 m -1.415446,-2.30145 a 40.084367,40.084367 0 0 1 -1.115826,-2.10152 m -10e-7,0 a 40.084367,40.084367 0 0 1 -0.533653,-1.1251 m 0,0 a 40.084367,40.084367 0 0 1 -0.8866855,-2.55915 m -0.931127,-2.21873 a 40.084367,40.084367 0 0 1 -0.624699,-2.2521 m 8e-6,-6e-6 a 40.084367,40.084367 0 0 1 -0.550206,-2.604039 m 0,0 a 40.084367,40.084367 0 0 1 -0.33619,-2.28266 m 0,0 a 40.084367,40.084367 0 0 1 -0.223483,-2.642068 m 0,0 a 40.084367,40.084367 0 0 1 -0.05185,-2.317132 m 0,0 a 40.084367,40.084367 0 0 1 0.111919,-2.7425 m 0.245453,-2.342308 a 40.084367,40.084367 0 0 1 0.464535,-2.732812 m 0,0 a 40.084367,40.084367 0 0 1 0.567372,-2.384579 m 0,0 a 40.084367,40.084367 0 0 1 0.333207,-1.162254 m 0,0 a 40.084367,40.084367 0 0 1 0.733098,-2.189541 m 1.007243,-2.483319 A 40.084367,40.084367 0 0 1 10.99349,28.436481 m 0,0 a 40.084367,40.084367 0 0 1 0.91686,-1.674085 m -7e-6,6e-6 a 40.084367,40.084367 0 0 1 1.280031,-2.063763 m 0,0 a 40.084367,40.084367 0 0 1 1.593493,-2.233506 m 0,0 a 40.084367,40.084367 0 0 1 1.490268,-1.830222 m 0,0 a 40.084367,40.084367 0 0 1 1.852885,-2.001553 m 0,0 a 40.084367,40.084367 0 0 1 1.67526,-1.595651 m 0,0 a 40.084367,40.084367 0 0 1 1.307398,-1.125302 40.084367,40.084367 0 0 1 0.722239,-0.581199 m 0,0 A 40.084367,40.084367 0 0 1 23.6863,13.958441 m 0,0 a 40.084367,40.084367 0 0 1 2.242309,-1.453522 m 2.034815,-1.145311 a 40.084367,40.084367 0 0 1 2.46306,-1.188016 m 0,0 a 40.084367,40.084367 0 0 1 2.240482,-0.90825 m 0,0 a 40.084367,40.084367 0 0 1 2.115317,-0.71772 m 0,0 a 40.084367,40.084367 0 0 1 2.275065,-0.629138 m 0,0 a 40.084367,40.084367 0 0 1 2.635898,-0.552859 m 0,0 A 40.084367,40.084367 0 0 1 41.98454,7.030773 m 0,0 a 40.084367,40.084367 0 0 1 2.70354,-0.220915 m 2.30414,-0.04365 a 40.084367,40.084367 0 0 1 2.66089,0.114591 m 2.3179,0.245086 a 40.084367,40.084367 0 0 1 2.66678,0.452749 m 0,0 a 40.084367,40.084367 0 0 1 2.34002,0.552618 m 0,0 a 40.084367,40.084367 0 0 1 2.68318,0.820949 m 0,0 a 40.084367,40.084367 0 0 1 2.34086,0.889579 m 0,0 a 40.084367,40.084367 0 0 1 1.84515,0.823134 m 2.23676,1.153741 a 40.084367,40.084367 0 0 1 2.39029,1.44074 m 0,0 a 40.084367,40.084367 0 0 1 2.12401,1.685571 m 5.55494,4.823858 a 40.084367,40.084367 0 0 1 1.38223,1.590498 40.084367,40.084367 0 0 1 0.12517,0.152641 m 0,0 a 40.084367,40.084367 0 0 1 1.64224,2.158461 m 0,0 a 40.084367,40.084367 0 0 1 1.28659,1.931524 m 1.06095,2.130589 a 40.084367,40.084367 0 0 1 1.34526,2.321559 m 0,0 a 40.084367,40.084367 0 0 1 1.12912,2.702369 m 1e-5,8e-6 a 40.084367,40.084367 0 0 1 0.92724,2.772309 m 0,0 a 40.084367,40.084367 0 0 1 0.76814,3.044911 m 0,0 a 40.084367,40.084367 0 0 1 0.45702,2.58141 m 0.30998,2.914857 a 40.084367,40.084367 0 0 1 0.0952,2.466145 m -0.0742,2.769794 a 40.084367,40.084367 0 0 1 -0.21634,2.369936 m 0,0 a 40.084367,40.084367 0 0 1 -0.42376,2.712538 m 0,0 a 40.084367,40.084367 0 0 1 -0.50211,2.26491 m 0,0 a 40.084367,40.084367 0 0 1 -0.7344,2.551678 m -0.77352,2.172 a 40.084367,40.084367 0 0 1 -1.47337,3.33191 m 0,0 a 40.084367,40.084367 0 0 1 -1.18479,2.20511 m 0,0 a 40.084367,40.084367 0 0 1 -1.4811,2.36711 m 0,0 a 40.084367,40.084367 0 0 1 -1.38998,1.93212 m 0,0 a 40.084367,40.084367 0 0 1 -1.71816,2.09401 m 0,0 a 40.084367,40.084367 0 0 1 -1.5821,1.6987 m 0,0 a 40.084367,40.084367 0 0 1 -1.93013,1.83001 m 0,0 a 40.084367,40.084367 0 0 1 -1.1099,0.94894 v 0 a 40.084367,40.084367 0 0 1 -0.65828,0.52942 m 0,0 a 40.084367,40.084367 0 0 1 -0.10366,0.0815"
       inkscape:export-xdpi="96"
       inkscape:export-ydpi="96" />
    <path
       d="m 83.80979,38.667342 a 38.1,38.1 0 0 1 0.055,0.253968 m 0,0 a 38.1,38.1 0 0 1 0.39689,2.173674 m 0,0 a 38.1,38.1 0 0 1 0.1232,2.24713 m 0.30162,2.545285 a 38.1,38.1 0 0 1 -0.035,2.85577 m 0,0 a 38.1,38.1 0 0 1 -0.17506,2.214345 m 0,0 a 38.1,38.1 0 0 1 -0.35727,2.510843 m 0,0 a 38.1,38.1 0 0 1 -0.4424,2.145257 m 0,0 a 38.1,38.1 0 0 1 -0.66105,2.433657 m 0,0 a 38.1,38.1 0 0 1 -0.70636,2.08135 m 0,0 a 38.1,38.1 0 0 1 -0.96901,2.3606 m 0,0 a 38.1,38.1 0 0 1 -0.97621,2.00891 m -1.32404,2.32967 a 38.1,38.1 0 0 1 -1.28183,1.94557 m -1.65137,2.17669 a 38.1,38.1 0 0 1 -1.62536,1.86319 m 0,0 a 38.1,38.1 0 0 1 -1.6193,1.63685 m 0,0 a 38.1,38.1 0 0 1 -1.76754,1.58006 m 0,0 a 38.1,38.1 0 0 1 -2.09557,1.6379 m 0,0 a 38.1,38.1 0 0 1 -1.86312,1.27162 m 0,0 a 38.1,38.1 0 0 1 -2.21173,1.31241 m 0,0 a 38.1,38.1 0 0 1 -1.96581,1.0055 m 0,0 a 38.1,38.1 0 0 1 -2.31602,1.00843 m 0,0 a 38.1,38.1 0 0 1 -2.05923,0.74876 m 0,0 a 38.1,38.1 0 0 1 -0.78489,0.25185 38.1,38.1 0 0 1 -1.69131,0.47765 m 0,0 a 38.1,38.1 0 0 1 -2.14798,0.48781 m -2.53508,0.41063 a 38.1,38.1 0 0 1 -2.25089,0.21971 m 0,0 a 38.1,38.1 0 0 1 -1.18199,0.0616 m 0,0 a 38.1,38.1 0 0 1 -2.57011,-0.14737 m -2.28703,0.0149 a 38.1,38.1 0 0 1 -2.205394,-0.26644 m -3e-6,0 a 38.1,38.1 0 0 1 -2.487724,-0.45934 m 0,0 a 38.1,38.1 0 0 1 -2.127795,-0.53105 m 0,0 a 38.1,38.1 0 0 1 -2.402842,-0.76023 m 0,0 a 38.1,38.1 0 0 1 -2.055136,-0.79342 m 0,0 a 38.1,38.1 0 0 1 -2.369665,-1.09135 m -1.969615,-1.06382 a 38.1,38.1 0 0 1 -2.233474,-1.39773 m 0,0 a 38.1,38.1 0 0 1 -1.890384,-1.36248 m 0,0 a 38.1,38.1 0 0 1 -0.900775,-0.71366 m 0,0 a 38.1,38.1 0 0 1 -1.658794,-1.43706 m -1.81771,-1.78435 a 38.1,38.1 0 0 1 -1.48917,-1.6574 m 0,0 a 38.1,38.1 0 0 1 -1.139269,-1.41186 m 3e-6,1e-5 a 38.1,38.1 0 0 1 -1.350224,-1.87217 m 0,0 a 38.1,38.1 0 0 1 -1.385899,-2.20911 m 0,0 a 38.1,38.1 0 0 1 -1.068858,-1.97238 m 0,0 a 38.1,38.1 0 0 1 -1.088131,-2.35308 m 0,0 a 38.1,38.1 0 0 1 -0.795729,-2.05002 m 0,0 a 38.1,38.1 0 0 1 -0.515564,-1.55643 38.1,38.1 0 0 1 -0.2492665,-0.845167 m 0,0 a 38.1,38.1 0 0 1 -0.534994,-2.126733 m 0,0 a 38.1,38.1 0 0 1 -0.465505,-2.496895 m -0.269768,-2.202947 a 38.1,38.1 0 0 1 -0.152241,-2.594765 m 0,0 a 38.1,38.1 0 0 1 0.01304,-2.297858 m 0,0 a 38.1,38.1 0 0 1 0.135158,-2.118873 m 0,0 a 38.1,38.1 0 0 1 0.270846,-2.227189 m 0,0 a 38.1,38.1 0 0 1 0.468534,-2.516681 m 0,0 a 38.1,38.1 0 0 1 0.53711,-2.134176 m 0,0 a 38.1,38.1 0 0 1 0.7847465,-2.455932 m 0.795926,-2.040754 a 38.1,38.1 0 0 1 1.064156,-2.296976 m 1.054651,-1.948297 a 38.1,38.1 0 0 1 1.363474,-2.17971 m 0,0 a 38.1,38.1 0 0 1 1.332926,-1.856381 m 0,0 a 38.1,38.1 0 0 1 1.692997,-2.060809 m 0,0 a 38.1,38.1 0 0 1 1.629364,-1.735121 m 0,0 a 38.1,38.1 0 0 1 1.391482,-1.323528 m 1.823824,-1.547983 a 38.1,38.1 0 0 1 2.13164,-1.579003 m 0,0 a 38.1,38.1 0 0 1 2.250387,-1.256331 m 6.250679,-3.135225 A 38.1,38.1 0 0 1 35.399195,10.432 38.1,38.1 0 0 1 35.578664,10.37726 m 0,0 a 38.1,38.1 0 0 1 2.491543,-0.661716 m 0,0 a 38.1,38.1 0 0 1 2.163324,-0.431328 m 2.256579,-0.16095 a 38.1,38.1 0 0 1 2.52734,-0.341668 m 0,0 a 38.1,38.1 0 0 1 2.78375,-0.01384 m 0,0 a 38.1,38.1 0 0 1 2.77213,0.188909 m 0,0 a 38.1,38.1 0 0 1 2.95408,0.427436 m 0,0 a 38.1,38.1 0 0 1 2.43409,0.533033 m 2.6739,0.782984 a 38.1,38.1 0 0 1 2.2018,0.809266 m 2.40731,1.068069 a 38.1,38.1 0 0 1 2.00444,1.048226 m 0,0 a 38.1,38.1 0 0 1 2.23042,1.354568 m 0,0 a 38.1,38.1 0 0 1 1.80867,1.261342 m 0,0 a 38.1,38.1 0 0 1 1.97657,1.569323 m 1.62875,1.466223 a 38.1,38.1 0 0 1 2.3947,2.50125 m 0,0 a 38.1,38.1 0 0 1 1.50893,1.839655 m 0,0 a 38.1,38.1 0 0 1 1.544,2.158719 m 0,0 a 38.1,38.1 0 0 1 1.19473,1.921133 m 0,0 a 38.1,38.1 0 0 1 1.21816,2.268165 m 0,0 a 38.1,38.1 0 0 1 0.92002,2.005455 m 0,0 a 38.1,38.1 0 0 1 0.9094,2.35886 m 0,0 a 38.1,38.1 0 0 1 0.43211,1.318998 v 0 a 38.1,38.1 0 0 1 0.22645,0.770357 m 0,0 a 38.1,38.1 0 0 1 0.034,0.120656"
       style="opacity:1;fill:none;fill-opacity:1;stroke:#ffffff;stroke-width:0.5291667;stroke-linecap:round;stroke-linejoin:miter;stroke-miterlimit:4;stroke-dasharray:none;stroke-dashoffset:0;stroke-opacity:1"
       id="path1118"
       inkscape:connector-curvature="0"
       inkscape:export-xdpi="96"
       inkscape:export-ydpi="96" />
    <path
       inkscape:connector-curvature="0"
       id="path1120"
       style="opacity:1;fill:none;fill-opacity:1;stroke:#ffffff;stroke-width:0.5291667;stroke-linecap:round;stroke-linejoin:miter;stroke-miterlimit:4;stroke-dasharray:none;stroke-dashoffset:0;stroke-opacity:1"
       d="m 74.3587,69.951701 a 36.115619,36.115619 0 0 1 -0.15814,0.18885 m 0,0 a 36.115619,36.115619 0 0 1 -1.39662,1.56092 m 0,0 a 36.115619,36.115619 0 0 1 -1.61075,1.39873 m -1.73023,1.70565 a 36.115619,36.115619 0 0 1 -2.1584,1.63415 m 0,0 a 36.115619,36.115619 0 0 1 -1.75961,1.15636 m 0,0 a 36.115619,36.115619 0 0 1 -2.08753,1.19234 m 0,0 a 36.115619,36.115619 0 0 1 -1.86331,0.91603 m 0,0 a 36.115619,36.115619 0 0 1 -2.20636,0.92003 m 0,0 a 36.115619,36.115619 0 0 1 -1.96894,0.68127 m 0,0 a 36.115619,36.115619 0 0 1 -2.33071,0.64698 m 0,0 a 36.115619,36.115619 0 0 1 -2.0716,0.43712 m -2.51397,0.3632 a 36.115619,36.115619 0 0 1 -2.20185,0.17148 m -2.58975,0.0292 a 36.115619,36.115619 0 0 1 -2.33994,-0.13363 m 0,0 a 36.115619,36.115619 0 0 1 -2.16695,-0.26067 m 0,0 a 36.115619,36.115619 0 0 1 -2.210601,-0.40467 m 0,0 a 36.115619,36.115619 0 0 1 -2.444631,-0.61662 m 0,0 a 36.115619,36.115619 0 0 1 -2.035259,-0.65554 m 0,0 a 36.115619,36.115619 0 0 1 -2.268473,-0.89284 m 0,0 a 36.115619,36.115619 0 0 1 -1.895719,-0.88716 m 0,0 a 36.115619,36.115619 0 0 1 -2.101529,-1.14764 m 0,0 a 36.115619,36.115619 0 0 1 -1.757834,-1.10637 m 0,0 a 36.115619,36.115619 0 0 1 -0.644599,-0.44159 36.115619,36.115619 0 0 1 -1.340947,-0.98856 m 0,0 a 36.115619,36.115619 0 0 1 -1.614042,-1.32451 m -1.781331,-1.65923 a 36.115619,36.115619 0 0 1 -1.47317,-1.55744 m -2e-6,0 a 36.115619,36.115619 0 0 1 -0.733345,-0.84911 m 0,0 a 36.115619,36.115619 0 0 1 -1.383931,-2.00987 m -1.340872,-1.70355 a 36.115619,36.115619 0 0 1 -1.082754,-1.80603 m 6e-6,-1e-5 a 36.115619,36.115619 0 0 1 -1.102476,-2.12956 m 0,0 a 36.115619,36.115619 0 0 1 -0.839524,-1.90178 m 0,0 a 36.115619,36.115619 0 0 1 -0.827853,-2.24095 m 0,0 a 36.115619,36.115619 0 0 1 -0.600845,-1.999929 m 0,0 a 36.115619,36.115619 0 0 1 -0.560656,-2.408631 m -0.348684,-2.093113 a 36.115619,36.115619 0 0 1 -0.252098,-2.484794 m 0,0 a 36.115619,36.115619 0 0 1 -0.07902,-2.207435 m 0,0 a 36.115619,36.115619 0 0 1 0.01058,-1.08931 m 0,0 a 36.115619,36.115619 0 0 1 0.111468,-2.077415 m 0.279078,-2.398301 a 36.115619,36.115619 0 0 1 0.375051,-2.078524 m 0,0 a 36.115619,36.115619 0 0 1 0.394699,-1.673828 m -5e-6,9e-6 a 36.115619,36.115619 0 0 1 0.616632,-2.099371 m 0,0 a 36.115619,36.115619 0 0 1 0.848142,-2.321971 m 0,0 a 36.115619,36.115619 0 0 1 0.855239,-1.946978 m 0,0 a 36.115619,36.115619 0 0 1 1.129056,-2.182748 m 0,0 a 36.115619,36.115619 0 0 1 1.072165,-1.787632 m 0,0 a 36.115619,36.115619 0 0 1 0.865509,-1.290897 36.115619,36.115619 0 0 1 0.487872,-0.677971 m 0,0 a 36.115619,36.115619 0 0 1 1.281189,-1.637026 m 0,0 a 36.115619,36.115619 0 0 1 1.598722,-1.800214 m 1.492451,-1.482769 a 36.115619,36.115619 0 0 1 1.854125,-1.622582 m 0,0 a 36.115619,36.115619 0 0 1 1.727932,-1.326222 m 0,0 a 36.115619,36.115619 0 0 1 1.664931,-1.13073 m 0,0 a 36.115619,36.115619 0 0 1 1.824915,-1.092116 m 0,0 a 36.115619,36.115619 0 0 1 2.156588,-1.112425 m 0,0 a 36.115619,36.115619 0 0 1 1.910084,-0.838694 m 0,0 A 36.115619,36.115619 0 0 1 35.335227,12.5347 m 1.990617,-0.590609 a 36.115619,36.115619 0 0 1 2.338396,-0.538759 m 2.07182,-0.343153 a 36.115619,36.115619 0 0 1 2.42462,-0.246488 m 0,0 a 36.115619,36.115619 0 0 1 2.1648,-0.08137 m 0,0 a 36.115619,36.115619 0 0 1 2.52719,0.06935 m 0,0 a 36.115619,36.115619 0 0 1 2.24636,0.211062 m 0,0 a 36.115619,36.115619 0 0 1 1.79991,0.272268 m 2.21931,0.465453 a 36.115619,36.115619 0 0 1 2.42151,0.677872 m 0,0 a 36.115619,36.115619 0 0 1 2.24896,0.954378 m 5.98143,2.856906 a 36.115619,36.115619 0 0 1 1.58195,1.049739 36.115619,36.115619 0 0 1 0.14532,0.102543 m 0,0 a 36.115619,36.115619 0 0 1 1.944,1.480636 m 0,0 a 36.115619,36.115619 0 0 1 1.58069,1.368855 m 1.43247,1.595865 a 36.115619,36.115619 0 0 1 1.7252,1.693515 m 0,0 a 36.115619,36.115619 0 0 1 1.62885,2.076089 m 0,0 a 36.115619,36.115619 0 0 1 1.47029,2.18526 m 0,0 a 36.115619,36.115619 0 0 1 1.3975,2.460162 m 0,0 a 36.115619,36.115619 0 0 1 1.01611,2.132249 m 0.96842,2.457122 a 36.115619,36.115619 0 0 1 0.67425,2.118941 m 0.59998,2.423281 a 36.115619,36.115619 0 0 1 0.3806,2.110114 m 0,0 a 36.115619,36.115619 0 0 1 0.28264,2.45741 m 0,0 a 36.115619,36.115619 0 0 1 0.10723,2.087458 m 0,0 a 36.115619,36.115619 0 0 1 -0.0257,2.392222 m -0.15078,2.071868 a 36.115619,36.115619 0 0 1 -0.48034,3.24709 m 0,0 a 36.115619,36.115619 0 0 1 -0.5,2.199286 m 0,0 a 36.115619,36.115619 0 0 1 -0.7185,2.411046 m 0,0 a 36.115619,36.115619 0 0 1 -0.74369,2.01141 m 0,0 a 36.115619,36.115619 0 0 1 -0.98988,2.23073 m 0,0 a 36.115619,36.115619 0 0 1 -0.96654,1.85477 m 0,0 a 36.115619,36.115619 0 0 1 -1.23729,2.0523 m 0,0 a 36.115619,36.115619 0 0 1 -0.73626,1.09039 v 0 a 36.115619,36.115619 0 0 1 -0.4447,0.6177 m 0,0 a 36.115619,36.115619 0 0 1 -0.0707,0.0955"
       inkscape:export-xdpi="96"
       inkscape:export-ydpi="96" />
  </g>
</svg>
